<?xml version="1.0" encoding="UTF-8" standalone="no"?>
<!DOCTYPE svg PUBLIC "-//W3C//DTD SVG 1.1//EN" "http://www.w3.org/Graphics/SVG/1.1/DTD/svg11.dtd">
<!-- Generated by Microsoft Visio, SVG Export j1_config.svg Page-13 -->
<svg xmlns="http://www.w3.org/2000/svg" xmlns:xlink="http://www.w3.org/1999/xlink" xmlns:ev="http://www.w3.org/2001/xml-events"
		xmlns:v="http://schemas.microsoft.com/visio/2003/SVGExtensions/" width="9.61307in" height="14.1168in"
		viewBox="0 0 692.141 1016.41" xml:space="preserve" color-interpolation-filters="sRGB" class="st20">
	<v:documentProperties v:langID="1033" v:viewMarkup="false">
		<v:userDefs>
			<v:ud v:nameU="msvNoAutoConnect" v:val="VT0(1):26"/>
			<v:ud v:nameU="msvConvertTheme"/>
		</v:userDefs>
	</v:documentProperties>

	<style type="text/css">
	<![CDATA[
		.st1 {fill:#ffffff;stroke:none;stroke-linecap:round;stroke-linejoin:round;stroke-width:0.24}
		.st2 {fill:none;stroke:none;stroke-linecap:round;stroke-linejoin:round;stroke-width:0.24}
		.st3 {fill:#ff0000;font-family:Calibri;font-size:4.00001em;font-weight:bold}
		.st4 {fill:none;stroke:#ff0000;stroke-linecap:round;stroke-linejoin:round;stroke-width:1}
		.st5 {stroke:#ff0000;stroke-linecap:round;stroke-linejoin:round;stroke-width:1.25}
		.st6 {fill:#ffffff;stroke:#ff0000;stroke-linecap:round;stroke-linejoin:round;stroke-width:1.25}
		.st7 {fill:none;stroke:none;stroke-linecap:round;stroke-linejoin:round;stroke-width:0.75}
		.st8 {fill:#ff0000;font-family:Calibri;font-size:2.50001em}
		.st9 {fill:#9c4a09;font-family:Calibri;font-size:2.50001em;font-weight:bold}
		.st10 {fill:#2103ed;fill-opacity:0.97;stroke:#0c0c0c;stroke-linecap:round;stroke-linejoin:round;stroke-width:4.5}
		.st11 {fill:#92d050;stroke:#0c0c0c;stroke-linecap:round;stroke-linejoin:round;stroke-width:4.5}
		.st12 {fill:#00b050;font-family:Calibri;font-size:2.50001em;font-weight:bold}
		.st13 {fill:#ff0000;stroke:#0c0c0c;stroke-linecap:round;stroke-linejoin:round;stroke-width:4.5}
		.st14 {fill:#2103ed;stroke:#0c0c0c;stroke-linecap:round;stroke-linejoin:round;stroke-width:4.5}
		.st15 {fill:#92d050;font-family:Calibri;font-size:2.50001em;font-weight:bold}
		.st16 {fill:#ff0000;font-family:Calibri;font-size:2.50001em;font-weight:bold}
		.st17 {fill:#0099ff;font-family:Calibri;font-size:2.50001em;font-weight:bold}
		.st18 {stroke:#2103ed;stroke-linecap:round;stroke-linejoin:round;stroke-width:1.25}
		.st19 {fill:#2103ed;font-family:Calibri;font-size:1.16666em;font-style:italic}
		.st20 {fill:none;fill-rule:evenodd;font-size:12px;overflow:visible;stroke-linecap:square;stroke-miterlimit:3}
	]]>
	</style>

	<g v:mID="33" v:index="13" v:groupContext="foregroundPage">
		<title>Page-13</title>
		<v:pageProperties v:drawingScale="1" v:pageScale="1" v:drawingUnits="19" v:shadowOffsetX="8.50394"
				v:shadowOffsetY="-8.50394"/>
		<v:layer v:name="Connector" v:index="0"/>
		<g id="shape2-1" v:mID="2" v:groupContext="shape" transform="translate(323.475,-145.413)">
			<title>Box.15</title>
			<v:userDefs>
				<v:ud v:nameU="visVersion" v:val="VT0(15):26"/>
			</v:userDefs>
			<rect x="0" y="247.148" width="147.13" height="769.262" class="st1"/>
		</g>
		<g id="shape23-3" v:mID="23" v:groupContext="shape" transform="translate(335.182,-72.625)">
			<title>Box.17</title>
			<desc>S1</desc>
			<v:userDefs>
				<v:ud v:nameU="visVersion" v:val="VT0(15):26"/>
			</v:userDefs>
			<v:textBlock v:margins="rect(4,4,4,4)" v:tabSpace="42.5197"/>
			<v:textRect cx="56.6929" cy="973.891" width="113.39" height="85.0394"/>
			<rect x="0" y="931.371" width="113.386" height="85.0394" class="st2"/>
			<text x="33.19" y="988.29" class="st3" v:langID="1033"><v:paragraph v:horizAlign="1"/><v:tabList/>S1</text>		</g>
		<g id="shape30-6" v:mID="30" v:groupContext="shape" transform="translate(305.406,-867.536)">
			<title>Circle.29</title>
			<v:userDefs>
				<v:ud v:nameU="visVersion" v:val="VT0(15):26"/>
			</v:userDefs>
			<path d="M0 1007.41 A9 9 0 0 1 18 1007.41 A9 9 0 1 1 0 1007.41 Z" class="st4"/>
		</g>
		<g id="shape31-8" v:mID="31" v:groupContext="shape" transform="translate(305.406,-804.536)">
			<title>Circle.30</title>
			<v:userDefs>
				<v:ud v:nameU="visVersion" v:val="VT0(15):26"/>
			</v:userDefs>
			<path d="M0 1007.41 A9 9 0 0 1 18 1007.41 A9 9 0 1 1 0 1007.41 Z" class="st4"/>
		</g>
		<g id="shape32-10" v:mID="32" v:groupContext="shape" transform="translate(305.406,-678.536)">
			<title>Circle.31</title>
			<v:userDefs>
				<v:ud v:nameU="visVersion" v:val="VT0(15):26"/>
			</v:userDefs>
			<path d="M0 1007.41 A9 9 0 0 1 18 1007.41 A9 9 0 1 1 0 1007.41 Z" class="st4"/>
		</g>
		<g id="shape33-12" v:mID="33" v:groupContext="shape" transform="translate(305.406,-737.036)">
			<title>Circle.32</title>
			<v:userDefs>
				<v:ud v:nameU="visVersion" v:val="VT0(15):26"/>
			</v:userDefs>
			<path d="M0 1007.41 A9 9 0 0 1 18 1007.41 A9 9 0 1 1 0 1007.41 Z" class="st4"/>
		</g>
		<g id="shape34-14" v:mID="34" v:groupContext="shape" transform="translate(471.063,-866.973)">
			<title>Circle.34</title>
			<v:userDefs>
				<v:ud v:nameU="visVersion" v:val="VT0(15):26"/>
			</v:userDefs>
			<path d="M0 1007.41 A9 9 0 0 1 18 1007.41 A9 9 0 1 1 0 1007.41 Z" class="st4"/>
		</g>
		<g id="shape35-16" v:mID="35" v:groupContext="shape" transform="translate(305.406,-615.536)">
			<title>Circle.35</title>
			<v:userDefs>
				<v:ud v:nameU="visVersion" v:val="VT0(15):26"/>
			</v:userDefs>
			<path d="M0 1007.41 A9 9 0 0 1 18 1007.41 A9 9 0 1 1 0 1007.41 Z" class="st4"/>
		</g>
		<g id="shape36-18" v:mID="36" v:groupContext="shape" v:layerMember="0" transform="translate(226.656,-615.536)">
			<title>Dynamic connector.36</title>
			<path d="M0 1007.41 L78.75 1007.41" class="st5"/>
		</g>
		<g id="shape37-21" v:mID="37" v:groupContext="shape" v:layerMember="0" transform="translate(226.656,-678.536)">
			<title>Dynamic connector.37</title>
			<path d="M0 1007.41 L78.75 1007.41" class="st5"/>
		</g>
		<g id="shape38-24" v:mID="38" v:groupContext="shape" v:layerMember="0" transform="translate(226.656,-737.036)">
			<title>Dynamic connector.38</title>
			<path d="M0 1007.41 L78.75 1007.41" class="st5"/>
		</g>
		<g id="shape39-27" v:mID="39" v:groupContext="shape" v:layerMember="0" transform="translate(226.656,-804.536)">
			<title>Dynamic connector.68</title>
			<path d="M0 1007.41 L78.75 1007.41" class="st5"/>
		</g>
		<g id="shape40-30" v:mID="40" v:groupContext="shape" v:layerMember="0" transform="translate(165.396,-867.536)">
			<title>Dynamic connector.69</title>
			<path d="M0 1007.41 L140.01 1007.41" class="st5"/>
		</g>
		<g id="shape41-33" v:mID="41" v:groupContext="shape" v:layerMember="0" transform="translate(174.331,-876.536)">
			<title>Dynamic connector.95</title>
			<path d="M-8.93 1016.41 L-9.07 972.24" class="st5"/>
		</g>
		<g id="shape42-36" v:mID="42" v:groupContext="shape" transform="translate(183.266,1080.92) rotate(180)">
			<title>Triangle</title>
			<v:userDefs>
				<v:ud v:nameU="visVersion" v:val="VT0(15):26"/>
			</v:userDefs>
			<path d="M36 1016.41 L18 985.21 L0 1016.41 L36 1016.41 Z" class="st6"/>
		</g>
		<g id="shape43-38" v:mID="43" v:groupContext="shape" v:layerMember="0" transform="translate(489.063,-867.254)">
			<title>Dynamic connector.100</title>
			<path d="M0 1007.69 L106.59 1007.13" class="st5"/>
		</g>
		<g id="shape44-41" v:mID="44" v:groupContext="shape" v:layerMember="0" transform="translate(604.758,-920.411)">
			<title>Dynamic connector.103</title>
			<path d="M-8.9 1016.41 L-9.1 1060.29" class="st5"/>
		</g>
		<g id="shape45-44" v:mID="45" v:groupContext="shape" transform="translate(84.2657,-948.536)">
			<title>Sheet.45</title>
			<desc>V_FL</desc>
			<v:textBlock v:margins="rect(4,4,4,4)"/>
			<v:textRect cx="76.5" cy="993.911" width="153" height="45"/>
			<rect x="0" y="971.411" width="153" height="45" class="st7"/>
			<text x="47.32" y="1002.91" class="st8" v:langID="1033"><v:paragraph v:horizAlign="1"/><v:tabList/>V_FL</text>		</g>
		<g id="shape46-47" v:mID="46" v:groupContext="shape" transform="translate(213.156,-813.536)">
			<title>Sheet.46</title>
			<desc>MOSI</desc>
			<v:textBlock v:margins="rect(4,4,4,4)"/>
			<v:textRect cx="49.5" cy="993.911" width="99" height="45"/>
			<rect x="0" y="971.411" width="99" height="45" class="st7"/>
			<text x="15.16" y="1002.91" class="st9" v:langID="1033"><v:paragraph v:horizAlign="1"/><v:tabList/>MOSI</text>		</g>
		<g id="shape47-50" v:mID="47" v:groupContext="shape" transform="translate(213.156,-750.536)">
			<title>Sheet.47</title>
			<desc>SCK</desc>
			<v:textBlock v:margins="rect(4,4,4,4)"/>
			<v:textRect cx="49.5" cy="993.911" width="99" height="45"/>
			<rect x="0" y="971.411" width="99" height="45" class="st7"/>
			<text x="26.27" y="1002.91" class="st9" v:langID="1033"><v:paragraph v:horizAlign="1"/><v:tabList/>SCK</text>		</g>
		<g id="shape48-53" v:mID="48" v:groupContext="shape" transform="translate(217.656,-687.536)">
			<title>Sheet.48</title>
			<desc>FCS</desc>
			<v:textBlock v:margins="rect(4,4,4,4)"/>
			<v:textRect cx="49.5" cy="993.911" width="99" height="45"/>
			<rect x="0" y="971.411" width="99" height="45" class="st7"/>
			<text x="27.59" y="1002.91" class="st9" v:langID="1033"><v:paragraph v:horizAlign="1"/><v:tabList/>FCS</text>		</g>
		<g id="shape49-56" v:mID="49" v:groupContext="shape" transform="translate(217.656,-624.536)">
			<title>Sheet.49</title>
			<desc>MISO</desc>
			<v:textBlock v:margins="rect(4,4,4,4)"/>
			<v:textRect cx="49.5" cy="993.911" width="99" height="45"/>
			<rect x="0" y="971.411" width="99" height="45" class="st7"/>
			<text x="15.16" y="1002.91" class="st9" v:langID="1033"><v:paragraph v:horizAlign="1"/><v:tabList/>MISO</text>		</g>
		<g id="shape50-59" v:mID="50" v:groupContext="shape" transform="translate(613.859,1081.21) rotate(180)">
			<title>Triangle.127</title>
			<v:userDefs>
				<v:ud v:nameU="visVersion" v:val="VT0(15):26"/>
			</v:userDefs>
			<path d="M36 1016.41 L18 985.21 L0 1016.41 L36 1016.41 Z" class="st6"/>
		</g>
		<g id="shape51-61" v:mID="51" v:groupContext="shape" transform="translate(520.766,-953.036)">
			<title>Sheet.51</title>
			<desc>V_HIGH</desc>
			<v:textBlock v:margins="rect(4,4,4,4)"/>
			<v:textRect cx="76.5" cy="993.911" width="153" height="45"/>
			<rect x="0" y="971.411" width="153" height="45" class="st7"/>
			<text x="28.58" y="1002.91" class="st8" v:langID="1033"><v:paragraph v:horizAlign="1"/><v:tabList/>V_HIGH</text>		</g>
		<g id="shape52-64" v:mID="52" v:groupContext="shape" transform="translate(325.5,-849.663)">
			<title>Rectangle.33</title>
			<v:userDefs>
				<v:ud v:nameU="visVersion" v:val="VT0(15):26"/>
			</v:userDefs>
			<rect x="0" y="962.538" width="73.5" height="53.8725" class="st10"/>
		</g>
		<g id="shape54-66" v:mID="54" v:groupContext="shape" transform="translate(399.281,-849.663)">
			<title>Rectangle.358</title>
			<v:userDefs>
				<v:ud v:nameU="visVersion" v:val="VT0(15):26"/>
			</v:userDefs>
			<rect x="0" y="962.531" width="69.4688" height="53.88" class="st11"/>
		</g>
		<g id="shape55-68" v:mID="55" v:groupContext="shape" transform="translate(487.5,1273.41) rotate(180)">
			<title>Circle.359</title>
			<v:userDefs>
				<v:ud v:nameU="visVersion" v:val="VT0(15):26"/>
			</v:userDefs>
			<path d="M0 1007.41 A9 9 0 0 1 18 1007.41 A9 9 0 1 1 0 1007.41 Z" class="st4"/>
		</g>
		<g id="shape56-70" v:mID="56" v:groupContext="shape" v:layerMember="0" transform="translate(566.25,-759.416)">
			<title>Dynamic connector.360</title>
			<path d="M0 1025.41 L-78.75 1025.41" class="st5"/>
		</g>
		<g id="shape57-73" v:mID="57" v:groupContext="shape" transform="translate(487.5,1394.74) rotate(180)">
			<title>Circle.361</title>
			<v:userDefs>
				<v:ud v:nameU="visVersion" v:val="VT0(15):26"/>
			</v:userDefs>
			<path d="M0 1007.41 A9 9 0 0 1 18 1007.41 A9 9 0 1 1 0 1007.41 Z" class="st4"/>
		</g>
		<g id="shape58-75" v:mID="58" v:groupContext="shape" v:layerMember="0" transform="translate(566.25,-638.082)">
			<title>Dynamic connector.362</title>
			<path d="M0 1025.41 L-78.75 1025.41" class="st5"/>
		</g>
		<g id="shape59-78" v:mID="59" v:groupContext="shape" transform="translate(472.875,-750.416)">
			<title>Sheet.59</title>
			<desc>P0_4</desc>
			<v:textBlock v:margins="rect(4,4,4,4)"/>
			<v:textRect cx="49.5" cy="993.911" width="99" height="45"/>
			<rect x="0" y="971.411" width="99" height="45" class="st7"/>
			<text x="18.84" y="1002.91" class="st12" v:langID="1033"><v:paragraph v:horizAlign="1"/><v:tabList/>P0_4</text>		</g>
		<g id="shape60-81" v:mID="60" v:groupContext="shape" transform="translate(468.375,-628.916)">
			<title>Sheet.60</title>
			<desc>P0_3</desc>
			<v:textBlock v:margins="rect(4,4,4,4)"/>
			<v:textRect cx="49.5" cy="993.911" width="99" height="45"/>
			<rect x="0" y="971.411" width="99" height="45" class="st7"/>
			<text x="18.84" y="1002.91" class="st12" v:langID="1033"><v:paragraph v:horizAlign="1"/><v:tabList/>P0_3</text>		</g>
		<g id="shape63-84" v:mID="63" v:groupContext="shape" transform="translate(487.5,1210.29) rotate(180)">
			<title>Circle.63</title>
			<v:userDefs>
				<v:ud v:nameU="visVersion" v:val="VT0(15):26"/>
			</v:userDefs>
			<path d="M0 1007.41 A9 9 0 0 1 18 1007.41 A9 9 0 1 1 0 1007.41 Z" class="st4"/>
		</g>
		<g id="shape64-86" v:mID="64" v:groupContext="shape" v:layerMember="0" transform="translate(566.25,-822.536)">
			<title>Dynamic connector.64</title>
			<path d="M0 1025.41 L-78.75 1025.41" class="st5"/>
		</g>
		<g id="shape65-89" v:mID="65" v:groupContext="shape" transform="translate(472.875,-813.536)">
			<title>Sheet.65</title>
			<desc>P0_0</desc>
			<v:textBlock v:margins="rect(4,4,4,4)"/>
			<v:textRect cx="49.5" cy="993.911" width="99" height="45"/>
			<rect x="0" y="971.411" width="99" height="45" class="st7"/>
			<text x="18.84" y="1002.91" class="st12" v:langID="1033"><v:paragraph v:horizAlign="1"/><v:tabList/>P0_0</text>		</g>
		<g id="shape66-92" v:mID="66" v:groupContext="shape" transform="translate(487.5,1336.29) rotate(180)">
			<title>Circle.66</title>
			<v:userDefs>
				<v:ud v:nameU="visVersion" v:val="VT0(15):26"/>
			</v:userDefs>
			<path d="M0 1007.41 A9 9 0 0 1 18 1007.41 A9 9 0 1 1 0 1007.41 Z" class="st4"/>
		</g>
		<g id="shape67-94" v:mID="67" v:groupContext="shape" v:layerMember="0" transform="translate(566.25,-696.536)">
			<title>Dynamic connector.67</title>
			<path d="M0 1025.41 L-78.75 1025.41" class="st5"/>
		</g>
		<g id="shape68-97" v:mID="68" v:groupContext="shape" transform="translate(472.875,-687.536)">
			<title>Sheet.68</title>
			<desc>P0_1</desc>
			<v:textBlock v:margins="rect(4,4,4,4)"/>
			<v:textRect cx="49.5" cy="993.911" width="99" height="45"/>
			<rect x="0" y="971.411" width="99" height="45" class="st7"/>
			<text x="18.84" y="1002.91" class="st12" v:langID="1033"><v:paragraph v:horizAlign="1"/><v:tabList/>P0_1</text>		</g>
		<g id="shape100-100" v:mID="100" v:groupContext="shape" transform="translate(325.5,-786.783)">
			<title>Rectangle.100</title>
			<v:userDefs>
				<v:ud v:nameU="visVersion" v:val="VT0(15):26"/>
			</v:userDefs>
			<rect x="0" y="962.538" width="73.5" height="53.8725" class="st10"/>
		</g>
		<g id="shape101-102" v:mID="101" v:groupContext="shape" transform="translate(399.281,-786.783)">
			<title>Rectangle.101</title>
			<v:userDefs>
				<v:ud v:nameU="visVersion" v:val="VT0(15):26"/>
			</v:userDefs>
			<rect x="0" y="962.531" width="69.4688" height="53.88" class="st11"/>
		</g>
		<g id="shape106-104" v:mID="106" v:groupContext="shape" transform="translate(325.5,-723.543)">
			<title>Rectangle.106</title>
			<v:userDefs>
				<v:ud v:nameU="visVersion" v:val="VT0(15):26"/>
			</v:userDefs>
			<rect x="0" y="962.538" width="73.5" height="53.8725" class="st10"/>
		</g>
		<g id="shape107-106" v:mID="107" v:groupContext="shape" transform="translate(399.281,-723.543)">
			<title>Rectangle.107</title>
			<v:userDefs>
				<v:ud v:nameU="visVersion" v:val="VT0(15):26"/>
			</v:userDefs>
			<rect x="0" y="962.531" width="69.4688" height="53.88" class="st11"/>
		</g>
		<g id="shape108-108" v:mID="108" v:groupContext="shape" transform="translate(325.5,-660.663)">
			<title>Rectangle.108</title>
			<v:userDefs>
				<v:ud v:nameU="visVersion" v:val="VT0(15):26"/>
			</v:userDefs>
			<rect x="0" y="962.538" width="73.5" height="53.8725" class="st10"/>
		</g>
		<g id="shape109-110" v:mID="109" v:groupContext="shape" transform="translate(399.281,-660.663)">
			<title>Rectangle.109</title>
			<v:userDefs>
				<v:ud v:nameU="visVersion" v:val="VT0(15):26"/>
			</v:userDefs>
			<rect x="0" y="962.531" width="69.4688" height="53.88" class="st11"/>
		</g>
		<g id="shape110-112" v:mID="110" v:groupContext="shape" transform="translate(325.687,-598.908)">
			<title>Rectangle.110</title>
			<v:userDefs>
				<v:ud v:nameU="visVersion" v:val="VT0(15):26"/>
			</v:userDefs>
			<rect x="0" y="962.538" width="73.5" height="53.8725" class="st10"/>
		</g>
		<g id="shape111-114" v:mID="111" v:groupContext="shape" transform="translate(399.469,-598.908)">
			<title>Rectangle.111</title>
			<v:userDefs>
				<v:ud v:nameU="visVersion" v:val="VT0(15):26"/>
			</v:userDefs>
			<rect x="0" y="962.531" width="69.4688" height="53.88" class="st11"/>
		</g>
		<g id="shape112-116" v:mID="112" v:groupContext="shape" transform="translate(325.687,-536.028)">
			<title>Rectangle.112</title>
			<v:userDefs>
				<v:ud v:nameU="visVersion" v:val="VT0(15):26"/>
			</v:userDefs>
			<rect x="0" y="962.538" width="73.5" height="53.8725" class="st13"/>
		</g>
		<g id="shape113-118" v:mID="113" v:groupContext="shape" transform="translate(399.469,-536.028)">
			<title>Rectangle.113</title>
			<v:userDefs>
				<v:ud v:nameU="visVersion" v:val="VT0(15):26"/>
			</v:userDefs>
			<rect x="0" y="962.531" width="69.4688" height="53.88" class="st10"/>
		</g>
		<g id="shape132-120" v:mID="132" v:groupContext="shape" transform="translate(325.312,-474.596)">
			<title>Rectangle.132</title>
			<v:userDefs>
				<v:ud v:nameU="visVersion" v:val="VT0(15):26"/>
			</v:userDefs>
			<rect x="0" y="962.538" width="73.5" height="53.8725" class="st13"/>
		</g>
		<g id="shape133-122" v:mID="133" v:groupContext="shape" transform="translate(399.094,-474.596)">
			<title>Rectangle.133</title>
			<v:userDefs>
				<v:ud v:nameU="visVersion" v:val="VT0(15):26"/>
			</v:userDefs>
			<rect x="0" y="962.531" width="69.4688" height="53.88" class="st10"/>
		</g>
		<g id="shape138-124" v:mID="138" v:groupContext="shape" transform="translate(325.312,-411.716)">
			<title>Rectangle.138</title>
			<v:userDefs>
				<v:ud v:nameU="visVersion" v:val="VT0(15):26"/>
			</v:userDefs>
			<rect x="0" y="962.538" width="73.5" height="53.8725" class="st13"/>
		</g>
		<g id="shape139-126" v:mID="139" v:groupContext="shape" transform="translate(399.094,-411.716)">
			<title>Rectangle.139</title>
			<v:userDefs>
				<v:ud v:nameU="visVersion" v:val="VT0(15):26"/>
			</v:userDefs>
			<rect x="0" y="962.531" width="69.4688" height="53.88" class="st14"/>
		</g>
		<g id="shape140-128" v:mID="140" v:groupContext="shape" transform="translate(325.312,-348.476)">
			<title>Rectangle.140</title>
			<v:userDefs>
				<v:ud v:nameU="visVersion" v:val="VT0(15):26"/>
			</v:userDefs>
			<rect x="0" y="962.538" width="73.5" height="53.8725" class="st13"/>
		</g>
		<g id="shape141-130" v:mID="141" v:groupContext="shape" transform="translate(399.094,-348.476)">
			<title>Rectangle.141</title>
			<v:userDefs>
				<v:ud v:nameU="visVersion" v:val="VT0(15):26"/>
			</v:userDefs>
			<rect x="0" y="962.531" width="69.4688" height="53.88" class="st10"/>
		</g>
		<g id="shape142-132" v:mID="142" v:groupContext="shape" transform="translate(325.312,-285.596)">
			<title>Rectangle.142</title>
			<v:userDefs>
				<v:ud v:nameU="visVersion" v:val="VT0(15):26"/>
			</v:userDefs>
			<rect x="0" y="962.538" width="73.5" height="53.8725" class="st10"/>
		</g>
		<g id="shape143-134" v:mID="143" v:groupContext="shape" transform="translate(399.094,-285.596)">
			<title>Rectangle.143</title>
			<v:userDefs>
				<v:ud v:nameU="visVersion" v:val="VT0(15):26"/>
			</v:userDefs>
			<rect x="0" y="962.531" width="69.4688" height="53.88" class="st11"/>
		</g>
		<g id="shape144-136" v:mID="144" v:groupContext="shape" transform="translate(325.5,-223.841)">
			<title>Rectangle.144</title>
			<v:userDefs>
				<v:ud v:nameU="visVersion" v:val="VT0(15):26"/>
			</v:userDefs>
			<rect x="0" y="962.538" width="73.5" height="53.8725" class="st10"/>
		</g>
		<g id="shape145-138" v:mID="145" v:groupContext="shape" transform="translate(399.281,-223.841)">
			<title>Rectangle.145</title>
			<v:userDefs>
				<v:ud v:nameU="visVersion" v:val="VT0(15):26"/>
			</v:userDefs>
			<rect x="0" y="962.531" width="69.4688" height="53.88" class="st11"/>
		</g>
		<g id="shape146-140" v:mID="146" v:groupContext="shape" transform="translate(325.5,-160.961)">
			<title>Rectangle.146</title>
			<v:userDefs>
				<v:ud v:nameU="visVersion" v:val="VT0(15):26"/>
			</v:userDefs>
			<rect x="0" y="962.538" width="73.5" height="53.8725" class="st10"/>
		</g>
		<g id="shape147-142" v:mID="147" v:groupContext="shape" transform="translate(399.281,-160.961)">
			<title>Rectangle.147</title>
			<v:userDefs>
				<v:ud v:nameU="visVersion" v:val="VT0(15):26"/>
			</v:userDefs>
			<rect x="0" y="962.531" width="69.4688" height="53.88" class="st11"/>
		</g>
		<g id="shape148-144" v:mID="148" v:groupContext="shape" transform="translate(432.375,-918.625)">
			<title>Sheet.148</title>
			<desc>ON</desc>
			<v:textBlock v:margins="rect(4,4,4,4)"/>
			<v:textRect cx="49.5" cy="993.911" width="99" height="45"/>
			<rect x="0" y="971.411" width="99" height="45" class="st7"/>
			<text x="29.48" y="1002.91" class="st15" v:langID="1033"><v:paragraph v:horizAlign="1"/><v:tabList/>ON</text>		</g>
		<g id="shape149-147" v:mID="149" v:groupContext="shape" transform="translate(283.875,-918.625)">
			<title>Sheet.149</title>
			<desc>OFF</desc>
			<v:textBlock v:margins="rect(4,4,4,4)"/>
			<v:textRect cx="49.5" cy="993.911" width="99" height="45"/>
			<rect x="0" y="971.411" width="99" height="45" class="st7"/>
			<text x="25.59" y="1002.91" class="st16" v:langID="1033"><v:paragraph v:horizAlign="1"/><v:tabList/>OFF</text>		</g>
		<g id="shape150-150" v:mID="150" v:groupContext="shape" transform="translate(305.25,-560.875)">
			<title>Circle.150</title>
			<v:userDefs>
				<v:ud v:nameU="visVersion" v:val="VT0(15):26"/>
			</v:userDefs>
			<path d="M0 1007.41 A9 9 0 0 1 18 1007.41 A9 9 0 1 1 0 1007.41 Z" class="st4"/>
		</g>
		<g id="shape151-152" v:mID="151" v:groupContext="shape" v:layerMember="0" transform="translate(226.5,-560.875)">
			<title>Dynamic connector.151</title>
			<path d="M0 1007.41 L78.75 1007.41" class="st5"/>
		</g>
		<g id="shape152-155" v:mID="152" v:groupContext="shape" transform="translate(216.375,-569.875)">
			<title>Sheet.152</title>
			<desc>P0_3</desc>
			<v:textBlock v:margins="rect(4,4,4,4)"/>
			<v:textRect cx="49.5" cy="993.911" width="99" height="45"/>
			<rect x="0" y="971.411" width="99" height="45" class="st7"/>
			<text x="18.84" y="1002.91" class="st12" v:langID="1033"><v:paragraph v:horizAlign="1"/><v:tabList/>P0_3</text>		</g>
		<g id="shape153-158" v:mID="153" v:groupContext="shape" transform="translate(305.25,-502.375)">
			<title>Circle.153</title>
			<v:userDefs>
				<v:ud v:nameU="visVersion" v:val="VT0(15):26"/>
			</v:userDefs>
			<path d="M0 1007.41 A9 9 0 0 1 18 1007.41 A9 9 0 1 1 0 1007.41 Z" class="st4"/>
		</g>
		<g id="shape154-160" v:mID="154" v:groupContext="shape" v:layerMember="0" transform="translate(226.5,-502.375)">
			<title>Dynamic connector.154</title>
			<path d="M0 1007.41 L78.75 1007.41" class="st5"/>
		</g>
		<g id="shape155-163" v:mID="155" v:groupContext="shape" transform="translate(217.5,-511.375)">
			<title>Sheet.155</title>
			<desc>P0_4</desc>
			<v:textBlock v:margins="rect(4,4,4,4)"/>
			<v:textRect cx="49.5" cy="993.911" width="99" height="45"/>
			<rect x="0" y="971.411" width="99" height="45" class="st7"/>
			<text x="18.84" y="1002.91" class="st12" v:langID="1033"><v:paragraph v:horizAlign="1"/><v:tabList/>P0_4</text>		</g>
		<g id="shape156-166" v:mID="156" v:groupContext="shape" transform="translate(304.687,-430.938)">
			<title>Circle.156</title>
			<v:userDefs>
				<v:ud v:nameU="visVersion" v:val="VT0(15):26"/>
			</v:userDefs>
			<path d="M0 1007.41 A9 9 0 0 1 18 1007.41 A9 9 0 1 1 0 1007.41 Z" class="st4"/>
		</g>
		<g id="shape157-168" v:mID="157" v:groupContext="shape" v:layerMember="0" transform="translate(225.937,-430.938)">
			<title>Dynamic connector.157</title>
			<path d="M0 1007.41 L78.75 1007.41" class="st5"/>
		</g>
		<g id="shape158-171" v:mID="158" v:groupContext="shape" transform="translate(216.937,-439.937)">
			<title>Sheet.158</title>
			<desc>P0_1</desc>
			<v:textBlock v:margins="rect(4,4,4,4)"/>
			<v:textRect cx="49.5" cy="993.911" width="99" height="45"/>
			<rect x="0" y="971.411" width="99" height="45" class="st7"/>
			<text x="18.84" y="1002.91" class="st12" v:langID="1033"><v:paragraph v:horizAlign="1"/><v:tabList/>P0_1</text>		</g>
		<g id="shape159-174" v:mID="159" v:groupContext="shape" transform="translate(305.812,-372.438)">
			<title>Circle.159</title>
			<v:userDefs>
				<v:ud v:nameU="visVersion" v:val="VT0(15):26"/>
			</v:userDefs>
			<path d="M0 1007.41 A9 9 0 0 1 18 1007.41 A9 9 0 1 1 0 1007.41 Z" class="st4"/>
		</g>
		<g id="shape160-176" v:mID="160" v:groupContext="shape" v:layerMember="0" transform="translate(227.062,-372.437)">
			<title>Dynamic connector.160</title>
			<path d="M0 1007.41 L78.75 1007.41" class="st5"/>
		</g>
		<g id="shape161-179" v:mID="161" v:groupContext="shape" transform="translate(218.063,-381.437)">
			<title>Sheet.161</title>
			<desc>P0_0</desc>
			<v:textBlock v:margins="rect(4,4,4,4)"/>
			<v:textRect cx="49.5" cy="993.911" width="99" height="45"/>
			<rect x="0" y="971.411" width="99" height="45" class="st7"/>
			<text x="18.84" y="1002.91" class="st12" v:langID="1033"><v:paragraph v:horizAlign="1"/><v:tabList/>P0_0</text>		</g>
		<g id="shape170-182" v:mID="170" v:groupContext="shape" transform="translate(305.25,-303.25)">
			<title>Circle.170</title>
			<v:userDefs>
				<v:ud v:nameU="visVersion" v:val="VT0(15):26"/>
			</v:userDefs>
			<path d="M0 1007.41 A9 9 0 0 1 18 1007.41 A9 9 0 1 1 0 1007.41 Z" class="st4"/>
		</g>
		<g id="shape171-184" v:mID="171" v:groupContext="shape" v:layerMember="0" transform="translate(226.5,-303.25)">
			<title>Dynamic connector.171</title>
			<path d="M0 1007.41 L78.75 1007.41" class="st5"/>
		</g>
		<g id="shape172-187" v:mID="172" v:groupContext="shape" transform="translate(217.5,-312.25)">
			<title>Sheet.172</title>
			<desc>P0_2</desc>
			<v:textBlock v:margins="rect(4,4,4,4)"/>
			<v:textRect cx="49.5" cy="993.911" width="99" height="45"/>
			<rect x="0" y="971.411" width="99" height="45" class="st7"/>
			<text x="18.84" y="1002.91" class="st12" v:langID="1033"><v:paragraph v:horizAlign="1"/><v:tabList/>P0_2</text>		</g>
		<g id="shape173-190" v:mID="173" v:groupContext="shape" transform="translate(489.75,1460.7) rotate(180)">
			<title>Circle.173</title>
			<v:userDefs>
				<v:ud v:nameU="visVersion" v:val="VT0(15):26"/>
			</v:userDefs>
			<path d="M0 1007.41 A9 9 0 0 1 18 1007.41 A9 9 0 1 1 0 1007.41 Z" class="st4"/>
		</g>
		<g id="shape174-192" v:mID="174" v:groupContext="shape" v:layerMember="0" transform="translate(568.5,-572.125)">
			<title>Dynamic connector.174</title>
			<path d="M0 1025.41 L-78.75 1025.41" class="st5"/>
		</g>
		<g id="shape175-195" v:mID="175" v:groupContext="shape" transform="translate(468.375,-562.958)">
			<title>Sheet.175</title>
			<desc>T_CTS</desc>
			<v:textBlock v:margins="rect(4,4,4,4)"/>
			<v:textRect cx="49.5" cy="993.911" width="99" height="45"/>
			<rect x="0" y="971.411" width="99" height="45" class="st7"/>
			<text x="12.15" y="1002.91" class="st17" v:langID="1033"><v:paragraph v:horizAlign="1"/><v:tabList/>T_CTS</text>		</g>
		<g id="shape176-198" v:mID="176" v:groupContext="shape" transform="translate(488.625,1523.53) rotate(180)">
			<title>Circle.176</title>
			<v:userDefs>
				<v:ud v:nameU="visVersion" v:val="VT0(15):26"/>
			</v:userDefs>
			<path d="M0 1007.41 A9 9 0 0 1 18 1007.41 A9 9 0 1 1 0 1007.41 Z" class="st4"/>
		</g>
		<g id="shape177-200" v:mID="177" v:groupContext="shape" v:layerMember="0" transform="translate(567.375,-509.292)">
			<title>Dynamic connector.177</title>
			<path d="M0 1025.41 L-78.75 1025.41" class="st5"/>
		</g>
		<g id="shape178-203" v:mID="178" v:groupContext="shape" transform="translate(467.25,-500.125)">
			<title>Sheet.178</title>
			<desc>T_RTS</desc>
			<v:textBlock v:margins="rect(4,4,4,4)"/>
			<v:textRect cx="49.5" cy="993.911" width="99" height="45"/>
			<rect x="0" y="971.411" width="99" height="45" class="st7"/>
			<text x="11.64" y="1002.91" class="st17" v:langID="1033"><v:paragraph v:horizAlign="1"/><v:tabList/>T_RTS</text>		</g>
		<g id="shape179-206" v:mID="179" v:groupContext="shape" transform="translate(488.625,1586.7) rotate(180)">
			<title>Circle.179</title>
			<v:userDefs>
				<v:ud v:nameU="visVersion" v:val="VT0(15):26"/>
			</v:userDefs>
			<path d="M0 1007.41 A9 9 0 0 1 18 1007.41 A9 9 0 1 1 0 1007.41 Z" class="st4"/>
		</g>
		<g id="shape180-208" v:mID="180" v:groupContext="shape" v:layerMember="0" transform="translate(567.375,-446.125)">
			<title>Dynamic connector.180</title>
			<path d="M0 1025.41 L-78.75 1025.41" class="st5"/>
		</g>
		<g id="shape181-211" v:mID="181" v:groupContext="shape" transform="translate(467.25,-436.958)">
			<title>Sheet.181</title>
			<desc>T_RX</desc>
			<v:textBlock v:margins="rect(4,4,4,4)"/>
			<v:textRect cx="49.5" cy="993.911" width="99" height="45"/>
			<rect x="0" y="971.411" width="99" height="45" class="st7"/>
			<text x="17.9" y="1002.91" class="st17" v:langID="1033"><v:paragraph v:horizAlign="1"/><v:tabList/>T_RX</text>		</g>
		<g id="shape182-214" v:mID="182" v:groupContext="shape" transform="translate(488.625,1649.53) rotate(180)">
			<title>Circle.182</title>
			<v:userDefs>
				<v:ud v:nameU="visVersion" v:val="VT0(15):26"/>
			</v:userDefs>
			<path d="M0 1007.41 A9 9 0 0 1 18 1007.41 A9 9 0 1 1 0 1007.41 Z" class="st4"/>
		</g>
		<g id="shape183-216" v:mID="183" v:groupContext="shape" v:layerMember="0" transform="translate(567.375,-383.292)">
			<title>Dynamic connector.183</title>
			<path d="M0 1025.41 L-78.75 1025.41" class="st5"/>
		</g>
		<g id="shape184-219" v:mID="184" v:groupContext="shape" transform="translate(467.25,-374.125)">
			<title>Sheet.184</title>
			<desc>T_TX</desc>
			<v:textBlock v:margins="rect(4,4,4,4)"/>
			<v:textRect cx="49.5" cy="993.911" width="99" height="45"/>
			<rect x="0" y="971.411" width="99" height="45" class="st7"/>
			<text x="18.91" y="1002.91" class="st17" v:langID="1033"><v:paragraph v:horizAlign="1"/><v:tabList/>T_TX</text>		</g>
		<g id="shape185-222" v:mID="185" v:groupContext="shape" transform="translate(488.625,1712.7) rotate(180)">
			<title>Circle.185</title>
			<v:userDefs>
				<v:ud v:nameU="visVersion" v:val="VT0(15):26"/>
			</v:userDefs>
			<path d="M0 1007.41 A9 9 0 0 1 18 1007.41 A9 9 0 1 1 0 1007.41 Z" class="st4"/>
		</g>
		<g id="shape186-224" v:mID="186" v:groupContext="shape" v:layerMember="0" transform="translate(567.375,-320.125)">
			<title>Dynamic connector.186</title>
			<path d="M0 1025.41 L-78.75 1025.41" class="st5"/>
		</g>
		<g id="shape187-227" v:mID="187" v:groupContext="shape" transform="translate(467.25,-310.958)">
			<title>Sheet.187</title>
			<desc>SWCLK</desc>
			<v:textBlock v:margins="rect(4,4,4,4)"/>
			<v:textRect cx="49.5" cy="993.911" width="99" height="45"/>
			<rect x="0" y="971.411" width="99" height="45" class="st7"/>
			<text x="6.33" y="1002.91" class="st17" v:langID="1033"><v:paragraph v:horizAlign="1"/><v:tabList/>SWCLK</text>		</g>
		<g id="shape188-230" v:mID="188" v:groupContext="shape" transform="translate(488.625,1773.45) rotate(180)">
			<title>Circle.188</title>
			<v:userDefs>
				<v:ud v:nameU="visVersion" v:val="VT0(15):26"/>
			</v:userDefs>
			<path d="M0 1007.41 A9 9 0 0 1 18 1007.41 A9 9 0 1 1 0 1007.41 Z" class="st4"/>
		</g>
		<g id="shape189-232" v:mID="189" v:groupContext="shape" v:layerMember="0" transform="translate(567.375,-259.375)">
			<title>Dynamic connector.189</title>
			<path d="M0 1025.41 L-78.75 1025.41" class="st5"/>
		</g>
		<g id="shape190-235" v:mID="190" v:groupContext="shape" transform="translate(471.187,-250.208)">
			<title>Sheet.190</title>
			<desc>SWDIO</desc>
			<v:textBlock v:margins="rect(4,4,4,4)"/>
			<v:textRect cx="49.5" cy="993.911" width="99" height="45"/>
			<rect x="0" y="971.411" width="99" height="45" class="st7"/>
			<text x="5.22" y="1002.91" class="st17" v:langID="1033"><v:paragraph v:horizAlign="1"/><v:tabList/>SWDIO</text>		</g>
		<g id="shape191-238" v:mID="191" v:groupContext="shape" transform="translate(488.625,1838.53) rotate(180)">
			<title>Circle.191</title>
			<v:userDefs>
				<v:ud v:nameU="visVersion" v:val="VT0(15):26"/>
			</v:userDefs>
			<path d="M0 1007.41 A9 9 0 0 1 18 1007.41 A9 9 0 1 1 0 1007.41 Z" class="st4"/>
		</g>
		<g id="shape192-240" v:mID="192" v:groupContext="shape" v:layerMember="0" transform="translate(567.375,-194.292)">
			<title>Dynamic connector.192</title>
			<path d="M0 1025.41 L-78.75 1025.41" class="st5"/>
		</g>
		<g id="shape193-243" v:mID="193" v:groupContext="shape" transform="translate(467.25,-185.125)">
			<title>Sheet.193</title>
			<desc>3V3</desc>
			<v:textBlock v:margins="rect(4,4,4,4)"/>
			<v:textRect cx="49.5" cy="993.911" width="99" height="45"/>
			<rect x="0" y="971.411" width="99" height="45" class="st7"/>
			<text x="25.43" y="1002.91" class="st17" v:langID="1033"><v:paragraph v:horizAlign="1"/><v:tabList/>3V3</text>		</g>
		<g id="shape194-246" v:mID="194" v:groupContext="shape" transform="translate(305.25,-243.625)">
			<title>Circle.194</title>
			<v:userDefs>
				<v:ud v:nameU="visVersion" v:val="VT0(15):26"/>
			</v:userDefs>
			<path d="M0 1007.41 A9 9 0 0 1 18 1007.41 A9 9 0 1 1 0 1007.41 Z" class="st4"/>
		</g>
		<g id="shape195-248" v:mID="195" v:groupContext="shape" v:layerMember="0" transform="translate(207.375,-261.625)">
			<title>Dynamic connector.195</title>
			<path d="M0 1025.41 L97.88 1025.41" class="st5"/>
		</g>
		<g id="shape196-251" v:mID="196" v:groupContext="shape" v:layerMember="0" transform="translate(192.75,-267.25)">
			<title>Dynamic connector.196</title>
			<path d="M3.38 1019.79 L14.62 1031.04" class="st18"/>
		</g>
		<g id="shape197-254" v:mID="197" v:groupContext="shape" v:layerMember="0" transform="translate(200.625,-263.875)">
			<title>Dynamic connector.197</title>
			<path d="M-4.5 1016.41 L-13.5 1050.16" class="st18"/>
		</g>
		<g id="shape198-257" v:mID="198" v:groupContext="shape" v:layerMember="0" transform="translate(169.687,-266.125)">
			<title>Dynamic connector.198</title>
			<path d="M0.56 1016.41 L17.44 1052.41" class="st18"/>
		</g>
		<g id="shape199-260" v:mID="199" v:groupContext="shape" v:layerMember="0" transform="translate(177,-266.125)">
			<title>Dynamic connector.199</title>
			<path d="M-6.75 1016.41 L-11.25 1052.41" class="st18"/>
		</g>
		<g id="shape200-263" v:mID="200" v:groupContext="shape" v:layerMember="0" transform="translate(148.313,-266.125)">
			<title>Dynamic connector.200</title>
			<path d="M0.56 1016.41 L17.44 1052.41" class="st18"/>
		</g>
		<g id="shape201-266" v:mID="201" v:groupContext="shape" v:layerMember="0" transform="translate(155.625,-266.125)">
			<title>Dynamic connector.201</title>
			<path d="M-6.75 1016.41 L-11.25 1052.41" class="st18"/>
		</g>
		<g id="shape202-269" v:mID="202" v:groupContext="shape" v:layerMember="0" transform="translate(130.313,-252.625)">
			<title>Dynamic connector.202</title>
			<path d="M3.94 1016.41 L14.06 1038.91" class="st18"/>
		</g>
		<g id="shape203-272" v:mID="203" v:groupContext="shape" v:layerMember="0" transform="translate(36.375,-261.625)">
			<title>Dynamic connector.203</title>
			<path d="M0 1025.41 L97.88 1025.41" class="st5"/>
		</g>
		<g id="shape204-275" v:mID="204" v:groupContext="shape" v:layerMember="0" transform="translate(192.75,-130)">
			<title>Dynamic connector.204</title>
			<path d="M3.38 1019.79 L14.62 1031.04" class="st18"/>
		</g>
		<g id="shape205-278" v:mID="205" v:groupContext="shape" v:layerMember="0" transform="translate(200.625,-126.625)">
			<title>Dynamic connector.205</title>
			<path d="M-4.5 1016.41 L-13.5 1050.16" class="st18"/>
		</g>
		<g id="shape206-281" v:mID="206" v:groupContext="shape" v:layerMember="0" transform="translate(169.687,-128.875)">
			<title>Dynamic connector.206</title>
			<path d="M0.56 1016.41 L17.44 1052.41" class="st18"/>
		</g>
		<g id="shape207-284" v:mID="207" v:groupContext="shape" v:layerMember="0" transform="translate(177,-128.875)">
			<title>Dynamic connector.207</title>
			<path d="M-6.75 1016.41 L-11.25 1052.41" class="st18"/>
		</g>
		<g id="shape208-287" v:mID="208" v:groupContext="shape" v:layerMember="0" transform="translate(148.313,-128.875)">
			<title>Dynamic connector.208</title>
			<path d="M0.56 1016.41 L17.44 1052.41" class="st18"/>
		</g>
		<g id="shape209-290" v:mID="209" v:groupContext="shape" v:layerMember="0" transform="translate(155.625,-128.875)">
			<title>Dynamic connector.209</title>
			<path d="M-6.75 1016.41 L-11.25 1052.41" class="st18"/>
		</g>
		<g id="shape210-293" v:mID="210" v:groupContext="shape" v:layerMember="0" transform="translate(130.313,-115.375)">
			<title>Dynamic connector.210</title>
			<path d="M3.94 1016.41 L14.06 1038.91" class="st18"/>
		</g>
		<g id="shape211-296" v:mID="211" v:groupContext="shape" v:layerMember="0" transform="translate(36.375,-124.375)">
			<title>Dynamic connector.211</title>
			<path d="M0 1025.41 L97.88 1025.41" class="st5"/>
		</g>
		<g id="shape212-299" v:mID="212" v:groupContext="shape" v:layerMember="0" transform="translate(197.25,-55.75)">
			<title>Dynamic connector.212</title>
			<path d="M3.38 1019.79 L14.62 1031.04" class="st18"/>
		</g>
		<g id="shape213-302" v:mID="213" v:groupContext="shape" v:layerMember="0" transform="translate(205.125,-52.375)">
			<title>Dynamic connector.213</title>
			<path d="M-4.5 1016.41 L-13.5 1050.16" class="st18"/>
		</g>
		<g id="shape214-305" v:mID="214" v:groupContext="shape" v:layerMember="0" transform="translate(174.188,-54.625)">
			<title>Dynamic connector.214</title>
			<path d="M0.56 1016.41 L17.44 1052.41" class="st18"/>
		</g>
		<g id="shape215-308" v:mID="215" v:groupContext="shape" v:layerMember="0" transform="translate(181.5,-54.625)">
			<title>Dynamic connector.215</title>
			<path d="M-6.75 1016.41 L-11.25 1052.41" class="st18"/>
		</g>
		<g id="shape216-311" v:mID="216" v:groupContext="shape" v:layerMember="0" transform="translate(152.813,-54.625)">
			<title>Dynamic connector.216</title>
			<path d="M0.56 1016.41 L17.44 1052.41" class="st18"/>
		</g>
		<g id="shape217-314" v:mID="217" v:groupContext="shape" v:layerMember="0" transform="translate(160.125,-54.625)">
			<title>Dynamic connector.217</title>
			<path d="M-6.75 1016.41 L-11.25 1052.41" class="st18"/>
		</g>
		<g id="shape218-317" v:mID="218" v:groupContext="shape" v:layerMember="0" transform="translate(134.813,-41.125)">
			<title>Dynamic connector.218</title>
			<path d="M3.94 1016.41 L14.06 1038.91" class="st18"/>
		</g>
		<g id="shape219-320" v:mID="219" v:groupContext="shape" v:layerMember="0" transform="translate(40.875,-50.125)">
			<title>Dynamic connector.219</title>
			<path d="M0 1025.41 L97.88 1025.41" class="st5"/>
		</g>
		<g id="shape220-323" v:mID="220" v:groupContext="shape" transform="translate(306.375,-180.625)">
			<title>Circle.220</title>
			<v:userDefs>
				<v:ud v:nameU="visVersion" v:val="VT0(15):26"/>
			</v:userDefs>
			<path d="M0 1007.41 A9 9 0 0 1 18 1007.41 A9 9 0 1 1 0 1007.41 Z" class="st4"/>
		</g>
		<g id="shape221-325" v:mID="221" v:groupContext="shape" v:layerMember="0" transform="translate(40.875,-180.625)">
			<title>Dynamic connector.221</title>
			<path d="M0 1007.41 L217.84 1007.41 A3 3 0 0 1 223.84 1007.41 L265.5 1007.41" class="st5"/>
		</g>
		<g id="shape222-328" v:mID="222" v:groupContext="shape" v:layerMember="0" transform="translate(270.937,-41.125)">
			<title>Dynamic connector.222</title>
			<path d="M-8.44 1016.41 L-9.56 804.91" class="st5"/>
		</g>
		<g id="shape223-331" v:mID="223" v:groupContext="shape" v:layerMember="0" transform="translate(207.375,-124.375)">
			<title>Dynamic connector.223</title>
			<path d="M0 1025.41 L54 1025.41" class="st5"/>
		</g>
		<g id="shape224-334" v:mID="224" v:groupContext="shape" v:layerMember="0" transform="translate(211.875,-50.125)">
			<title>Dynamic connector.224</title>
			<path d="M0 1025.41 L50.62 1025.41" class="st5"/>
		</g>
		<g id="shape225-337" v:mID="225" v:groupContext="shape" transform="translate(31.875,-252.625)">
			<title>Sheet.225</title>
			<desc>P0_10</desc>
			<v:textBlock v:margins="rect(4,4,4,4)"/>
			<v:textRect cx="49.5" cy="993.911" width="99" height="45"/>
			<rect x="0" y="971.411" width="99" height="45" class="st7"/>
			<text x="11.24" y="1002.91" class="st12" v:langID="1033"><v:paragraph v:horizAlign="1"/><v:tabList/>P0_10</text>		</g>
		<g id="shape226-340" v:mID="226" v:groupContext="shape" transform="translate(27.375,-189.625)">
			<title>Sheet.226</title>
			<desc>1_Wire_EN</desc>
			<v:textBlock v:margins="rect(4,4,4,4)"/>
			<v:textRect cx="79.875" cy="993.911" width="159.75" height="45"/>
			<rect x="0" y="971.411" width="159.75" height="45" class="st7"/>
			<text x="10.84" y="1002.91" class="st8" v:langID="1033"><v:paragraph v:horizAlign="1"/><v:tabList/>1_Wire_EN</text>		</g>
		<g id="shape227-343" v:mID="227" v:groupContext="shape" transform="translate(22.875,-113.125)">
			<title>Sheet.227</title>
			<desc>P0_5</desc>
			<v:textBlock v:margins="rect(4,4,4,4)"/>
			<v:textRect cx="49.5" cy="993.911" width="99" height="45"/>
			<rect x="0" y="971.411" width="99" height="45" class="st7"/>
			<text x="18.84" y="1002.91" class="st12" v:langID="1033"><v:paragraph v:horizAlign="1"/><v:tabList/>P0_5</text>		</g>
		<g id="shape228-346" v:mID="228" v:groupContext="shape" transform="translate(18.375,-41.125)">
			<title>Sheet.228</title>
			<desc>P0_1</desc>
			<v:textBlock v:margins="rect(4,4,4,4)"/>
			<v:textRect cx="49.5" cy="993.911" width="99" height="45"/>
			<rect x="0" y="971.411" width="99" height="45" class="st7"/>
			<text x="18.84" y="1002.91" class="st12" v:langID="1033"><v:paragraph v:horizAlign="1"/><v:tabList/>P0_1</text>		</g>
		<g id="shape229-349" v:mID="229" v:groupContext="shape" transform="translate(117.375,-122.125)">
			<title>Sheet.229</title>
			<desc>R20</desc>
			<v:textBlock v:margins="rect(4,4,4,4)"/>
			<v:textRect cx="49.5" cy="993.911" width="99" height="45"/>
			<rect x="0" y="971.411" width="99" height="45" class="st7"/>
			<text x="38.6" y="998.11" class="st19" v:langID="1033"><v:paragraph v:horizAlign="1"/><v:tabList/>R20</text>		</g>
		<g id="shape230-352" v:mID="230" v:groupContext="shape" transform="translate(112.875,-257.125)">
			<title>Sheet.230</title>
			<desc>R19</desc>
			<v:textBlock v:margins="rect(4,4,4,4)"/>
			<v:textRect cx="49.5" cy="993.911" width="99" height="45"/>
			<rect x="0" y="971.411" width="99" height="45" class="st7"/>
			<text x="38.6" y="998.11" class="st19" v:langID="1033"><v:paragraph v:horizAlign="1"/><v:tabList/>R19</text>		</g>
		<g id="shape231-355" v:mID="231" v:groupContext="shape" transform="translate(112.875,-45.625)">
			<title>Sheet.231</title>
			<desc>R21</desc>
			<v:textBlock v:margins="rect(4,4,4,4)"/>
			<v:textRect cx="49.5" cy="993.911" width="99" height="45"/>
			<rect x="0" y="971.411" width="99" height="45" class="st7"/>
			<text x="38.6" y="998.11" class="st19" v:langID="1033"><v:paragraph v:horizAlign="1"/><v:tabList/>R21</text>		</g>
		<g id="shape232-358" v:mID="232" v:groupContext="shape" transform="translate(186.484,-36)">
			<title>Sheet.232</title>
			<desc>NP</desc>
			<v:textBlock v:margins="rect(4,4,4,4)"/>
			<v:textRect cx="49.5" cy="993.911" width="99" height="45"/>
			<rect x="0" y="971.411" width="99" height="45" class="st7"/>
			<text x="41.37" y="998.11" class="st19" v:langID="1033"><v:paragraph v:horizAlign="1"/><v:tabList/>NP</text>		</g>
		<g id="shape233-361" v:mID="233" v:groupContext="shape" transform="translate(181.984,-103.5)">
			<title>Sheet.233</title>
			<desc>NP</desc>
			<v:textBlock v:margins="rect(4,4,4,4)"/>
			<v:textRect cx="49.5" cy="993.911" width="99" height="45"/>
			<rect x="0" y="971.411" width="99" height="45" class="st7"/>
			<text x="41.37" y="998.11" class="st19" v:langID="1033"><v:paragraph v:horizAlign="1"/><v:tabList/>NP</text>		</g>
		<g id="shape234-364" v:mID="234" v:groupContext="shape" transform="translate(177.484,-243)">
			<title>Sheet.234</title>
			<desc>0</desc>
			<v:textBlock v:margins="rect(4,4,4,4)"/>
			<v:textRect cx="49.5" cy="993.911" width="99" height="45"/>
			<rect x="0" y="971.411" width="99" height="45" class="st7"/>
			<text x="45.95" y="998.11" class="st19" v:langID="1033"><v:paragraph v:horizAlign="1"/><v:tabList/>0</text>		</g>
	</g>
</svg>
