<?xml version="1.0" encoding="UTF-8" standalone="no"?>
<!DOCTYPE svg PUBLIC "-//W3C//DTD SVG 1.1//EN" "http://www.w3.org/Graphics/SVG/1.1/DTD/svg11.dtd">
<!-- Generated by Microsoft Visio, SVG Export j1_config.svg Page-12 -->
<svg xmlns="http://www.w3.org/2000/svg" xmlns:xlink="http://www.w3.org/1999/xlink" xmlns:ev="http://www.w3.org/2001/xml-events"
		xmlns:v="http://schemas.microsoft.com/visio/2003/SVGExtensions/" width="8.69792in" height="13.1944in"
		viewBox="0 0 626.25 949.995" xml:space="preserve" color-interpolation-filters="sRGB" class="st13">
	<v:documentProperties v:langID="1033" v:viewMarkup="false">
		<v:userDefs>
			<v:ud v:nameU="msvNoAutoConnect" v:val="VT0(1):26"/>
			<v:ud v:nameU="msvConvertTheme"/>
		</v:userDefs>
	</v:documentProperties>

	<style type="text/css">
	<![CDATA[
		.st1 {fill:#bfbfbf;stroke:#000000;stroke-linecap:round;stroke-linejoin:round;stroke-width:0.24}
		.st2 {fill:#d9958f;stroke:#000000;stroke-linecap:round;stroke-linejoin:round;stroke-width:0.24}
		.st3 {fill:#000000;font-family:Calibri;font-size:2.50001em}
		.st4 {fill:none;stroke:none;stroke-linecap:round;stroke-linejoin:round;stroke-width:0.24}
		.st5 {fill:#ff0000;font-family:Calibri;font-size:4.00001em;font-weight:bold}
		.st6 {fill:none;stroke:#ff0000;stroke-linecap:round;stroke-linejoin:round;stroke-width:1}
		.st7 {stroke:#ff0000;stroke-linecap:round;stroke-linejoin:round;stroke-width:1.25}
		.st8 {fill:#ffffff;stroke:#ff0000;stroke-linecap:round;stroke-linejoin:round;stroke-width:1.25}
		.st9 {fill:none;stroke:none;stroke-linecap:round;stroke-linejoin:round;stroke-width:0.75}
		.st10 {fill:#ff0000;font-family:Calibri;font-size:2.50001em}
		.st11 {fill:none;stroke:#0c0c0c;stroke-linecap:round;stroke-linejoin:round;stroke-width:4.5}
		.st12 {fill:none;stroke:#2103ed;stroke-linecap:round;stroke-linejoin:round;stroke-width:4.5}
		.st13 {fill:none;fill-rule:evenodd;font-size:12px;overflow:visible;stroke-linecap:square;stroke-miterlimit:3}
	]]>
	</style>

	<g v:mID="32" v:index="7" v:groupContext="foregroundPage">
		<title>Page-12</title>
		<v:pageProperties v:drawingScale="1" v:pageScale="1" v:drawingUnits="19" v:shadowOffsetX="8.50394"
				v:shadowOffsetY="-8.50394"/>
		<v:layer v:name="Connector" v:index="0"/>
		<g id="shape1-1" v:mID="1" v:groupContext="shape" transform="translate(257.584,-18.12)">
			<title>Box.15</title>
			<v:userDefs>
				<v:ud v:nameU="visVersion" v:val="VT0(15):26"/>
			</v:userDefs>
			<rect x="0" y="119.855" width="147.13" height="830.14" class="st1"/>
		</g>
		<g id="shape2-3" v:mID="2" v:groupContext="shape" transform="translate(268.257,-785.6)">
			<title>Circle.2</title>
			<desc>1</desc>
			<v:userDefs>
				<v:ud v:nameU="visVersion" v:val="VT0(15):26"/>
			</v:userDefs>
			<v:textBlock v:margins="rect(4,4,4,4)" v:tabSpace="42.5197"/>
			<v:textRect cx="24.0723" cy="925.923" width="48.15" height="48.1447"/>
			<path d="M0 925.92 A24.0723 24.0723 0 0 1 48.14 925.92 A24.0723 24.0723 0 1 1 -0 925.92 Z" class="st2"/>
			<text x="16.47" y="934.92" class="st3" v:langID="1033"><v:paragraph v:horizAlign="1"/><v:tabList/>1</text>		</g>
		<g id="shape3-6" v:mID="3" v:groupContext="shape" transform="translate(344.079,-785.6)">
			<title>Circle.3</title>
			<desc>2</desc>
			<v:userDefs>
				<v:ud v:nameU="visVersion" v:val="VT0(15):26"/>
			</v:userDefs>
			<v:textBlock v:margins="rect(4,4,4,4)" v:tabSpace="42.5197"/>
			<v:textRect cx="24.0723" cy="925.923" width="48.15" height="48.1447"/>
			<path d="M0 925.92 A24.0723 24.0723 0 0 1 48.14 925.92 A24.0723 24.0723 0 1 1 -0 925.92 Z" class="st2"/>
			<text x="16.47" y="934.92" class="st3" v:langID="1033"><v:paragraph v:horizAlign="1"/><v:tabList/>2</text>		</g>
		<g id="shape4-9" v:mID="4" v:groupContext="shape" transform="translate(267.918,-721.595)">
			<title>Circle.4</title>
			<desc>3</desc>
			<v:userDefs>
				<v:ud v:nameU="visVersion" v:val="VT0(15):26"/>
			</v:userDefs>
			<v:textBlock v:margins="rect(4,4,4,4)" v:tabSpace="42.5197"/>
			<v:textRect cx="24.0723" cy="925.923" width="48.15" height="48.1447"/>
			<path d="M0 925.92 A24.0723 24.0723 0 0 1 48.14 925.92 A24.0723 24.0723 0 1 1 -0 925.92 Z" class="st2"/>
			<text x="16.47" y="934.92" class="st3" v:langID="1033"><v:paragraph v:horizAlign="1"/><v:tabList/>3</text>		</g>
		<g id="shape5-12" v:mID="5" v:groupContext="shape" transform="translate(343.74,-721.595)">
			<title>Circle.5</title>
			<desc>4</desc>
			<v:userDefs>
				<v:ud v:nameU="visVersion" v:val="VT0(15):26"/>
			</v:userDefs>
			<v:textBlock v:margins="rect(4,4,4,4)" v:tabSpace="42.5197"/>
			<v:textRect cx="24.0723" cy="925.923" width="48.15" height="48.1447"/>
			<path d="M0 925.92 A24.0723 24.0723 0 0 1 48.14 925.92 A24.0723 24.0723 0 1 1 -0 925.92 Z" class="st2"/>
			<text x="16.47" y="934.92" class="st3" v:langID="1033"><v:paragraph v:horizAlign="1"/><v:tabList/>4</text>		</g>
		<g id="shape6-15" v:mID="6" v:groupContext="shape" transform="translate(268.087,-660.048)">
			<title>Circle.6</title>
			<desc>5</desc>
			<v:userDefs>
				<v:ud v:nameU="visVersion" v:val="VT0(15):26"/>
			</v:userDefs>
			<v:textBlock v:margins="rect(4,4,4,4)" v:tabSpace="42.5197"/>
			<v:textRect cx="24.0723" cy="925.923" width="48.15" height="48.1447"/>
			<path d="M0 925.92 A24.0723 24.0723 0 0 1 48.14 925.92 A24.0723 24.0723 0 1 1 -0 925.92 Z" class="st2"/>
			<text x="16.47" y="934.92" class="st3" v:langID="1033"><v:paragraph v:horizAlign="1"/><v:tabList/>5</text>		</g>
		<g id="shape7-18" v:mID="7" v:groupContext="shape" transform="translate(343.91,-660.048)">
			<title>Circle.7</title>
			<desc>6</desc>
			<v:userDefs>
				<v:ud v:nameU="visVersion" v:val="VT0(15):26"/>
			</v:userDefs>
			<v:textBlock v:margins="rect(4,4,4,4)" v:tabSpace="42.5197"/>
			<v:textRect cx="24.0723" cy="925.923" width="48.15" height="48.1447"/>
			<path d="M0 925.92 A24.0723 24.0723 0 0 1 48.14 925.92 A24.0723 24.0723 0 1 1 -0 925.92 Z" class="st2"/>
			<text x="16.47" y="934.92" class="st3" v:langID="1033"><v:paragraph v:horizAlign="1"/><v:tabList/>6</text>		</g>
		<g id="shape8-21" v:mID="8" v:groupContext="shape" transform="translate(267.749,-597.048)">
			<title>Circle.8</title>
			<desc>7</desc>
			<v:userDefs>
				<v:ud v:nameU="visVersion" v:val="VT0(15):26"/>
			</v:userDefs>
			<v:textBlock v:margins="rect(4,4,4,4)" v:tabSpace="42.5197"/>
			<v:textRect cx="24.0723" cy="925.923" width="48.15" height="48.1447"/>
			<path d="M0 925.92 A24.0723 24.0723 0 0 1 48.14 925.92 A24.0723 24.0723 0 1 1 -0 925.92 Z" class="st2"/>
			<text x="16.47" y="934.92" class="st3" v:langID="1033"><v:paragraph v:horizAlign="1"/><v:tabList/>7</text>		</g>
		<g id="shape9-24" v:mID="9" v:groupContext="shape" transform="translate(343.571,-597.048)">
			<title>Circle.9</title>
			<desc>8</desc>
			<v:userDefs>
				<v:ud v:nameU="visVersion" v:val="VT0(15):26"/>
			</v:userDefs>
			<v:textBlock v:margins="rect(4,4,4,4)" v:tabSpace="42.5197"/>
			<v:textRect cx="24.0723" cy="925.923" width="48.15" height="48.1447"/>
			<path d="M0 925.92 A24.0723 24.0723 0 0 1 48.14 925.92 A24.0723 24.0723 0 1 1 -0 925.92 Z" class="st2"/>
			<text x="16.47" y="934.92" class="st3" v:langID="1033"><v:paragraph v:horizAlign="1"/><v:tabList/>8</text>		</g>
		<g id="shape10-27" v:mID="10" v:groupContext="shape" transform="translate(267.41,-534.168)">
			<title>Circle.10</title>
			<desc>9</desc>
			<v:userDefs>
				<v:ud v:nameU="visVersion" v:val="VT0(15):26"/>
			</v:userDefs>
			<v:textBlock v:margins="rect(4,4,4,4)" v:tabSpace="42.5197"/>
			<v:textRect cx="24.0723" cy="925.923" width="48.15" height="48.1447"/>
			<path d="M0 925.92 A24.0723 24.0723 0 0 1 48.14 925.92 A24.0723 24.0723 0 1 1 -0 925.92 Z" class="st2"/>
			<text x="16.47" y="934.92" class="st3" v:langID="1033"><v:paragraph v:horizAlign="1"/><v:tabList/>9</text>		</g>
		<g id="shape11-30" v:mID="11" v:groupContext="shape" transform="translate(343.232,-534.168)">
			<title>Circle.11</title>
			<desc>10</desc>
			<v:userDefs>
				<v:ud v:nameU="visVersion" v:val="VT0(15):26"/>
			</v:userDefs>
			<v:textBlock v:margins="rect(4,4,4,4)" v:tabSpace="42.5197"/>
			<v:textRect cx="24.0723" cy="925.923" width="48.15" height="48.1447"/>
			<path d="M0 925.92 A24.0723 24.0723 0 0 1 48.14 925.92 A24.0723 24.0723 0 1 1 -0 925.92 Z" class="st2"/>
			<text x="8.87" y="934.92" class="st3" v:langID="1033"><v:paragraph v:horizAlign="1"/><v:tabList/>10</text>		</g>
		<g id="shape12-33" v:mID="12" v:groupContext="shape" transform="translate(343.063,-406.812)">
			<title>Circle.12</title>
			<desc>14</desc>
			<v:userDefs>
				<v:ud v:nameU="visVersion" v:val="VT0(15):26"/>
			</v:userDefs>
			<v:textBlock v:margins="rect(4,4,4,4)" v:tabSpace="42.5197"/>
			<v:textRect cx="24.0723" cy="925.923" width="48.15" height="48.1447"/>
			<path d="M0 925.92 A24.0723 24.0723 0 0 1 48.14 925.92 A24.0723 24.0723 0 1 1 -0 925.92 Z" class="st2"/>
			<text x="8.87" y="934.92" class="st3" v:langID="1033"><v:paragraph v:horizAlign="1"/><v:tabList/>14</text>		</g>
		<g id="shape13-36" v:mID="13" v:groupContext="shape" transform="translate(342.724,-345.168)">
			<title>Circle.13</title>
			<desc>16</desc>
			<v:userDefs>
				<v:ud v:nameU="visVersion" v:val="VT0(15):26"/>
			</v:userDefs>
			<v:textBlock v:margins="rect(4,4,4,4)" v:tabSpace="42.5197"/>
			<v:textRect cx="24.0723" cy="925.923" width="48.15" height="48.1447"/>
			<path d="M0 925.92 A24.0723 24.0723 0 0 1 48.14 925.92 A24.0723 24.0723 0 1 1 -0 925.92 Z" class="st2"/>
			<text x="8.87" y="934.92" class="st3" v:langID="1033"><v:paragraph v:horizAlign="1"/><v:tabList/>16</text>		</g>
		<g id="shape14-39" v:mID="14" v:groupContext="shape" transform="translate(268.511,-280.026)">
			<title>Circle.14</title>
			<desc>17</desc>
			<v:userDefs>
				<v:ud v:nameU="visVersion" v:val="VT0(15):26"/>
			</v:userDefs>
			<v:textBlock v:margins="rect(4,4,4,4)" v:tabSpace="42.5197"/>
			<v:textRect cx="24.0723" cy="925.923" width="48.15" height="48.1447"/>
			<path d="M0 925.92 A24.0723 24.0723 0 0 1 48.14 925.92 A24.0723 24.0723 0 1 1 -0 925.92 Z" class="st2"/>
			<text x="8.87" y="934.92" class="st3" v:langID="1033"><v:paragraph v:horizAlign="1"/><v:tabList/>17</text>		</g>
		<g id="shape15-42" v:mID="15" v:groupContext="shape" transform="translate(344.333,-280.026)">
			<title>Circle.15</title>
			<desc>18</desc>
			<v:userDefs>
				<v:ud v:nameU="visVersion" v:val="VT0(15):26"/>
			</v:userDefs>
			<v:textBlock v:margins="rect(4,4,4,4)" v:tabSpace="42.5197"/>
			<v:textRect cx="24.0723" cy="925.923" width="48.15" height="48.1447"/>
			<path d="M0 925.92 A24.0723 24.0723 0 0 1 48.14 925.92 A24.0723 24.0723 0 1 1 -0 925.92 Z" class="st2"/>
			<text x="8.87" y="934.92" class="st3" v:langID="1033"><v:paragraph v:horizAlign="1"/><v:tabList/>18</text>		</g>
		<g id="shape17-45" v:mID="17" v:groupContext="shape" transform="translate(267.494,-168.831)">
			<title>Circle.17</title>
			<desc>21</desc>
			<v:userDefs>
				<v:ud v:nameU="visVersion" v:val="VT0(15):26"/>
			</v:userDefs>
			<v:textBlock v:margins="rect(4,4,4,4)" v:tabSpace="42.5197"/>
			<v:textRect cx="24.0723" cy="925.923" width="48.15" height="48.1447"/>
			<path d="M0 925.92 A24.0723 24.0723 0 0 1 48.14 925.92 A24.0723 24.0723 0 1 1 -0 925.92 Z" class="st2"/>
			<text x="8.87" y="934.92" class="st3" v:langID="1033"><v:paragraph v:horizAlign="1"/><v:tabList/>21</text>		</g>
		<g id="shape18-48" v:mID="18" v:groupContext="shape" transform="translate(343.317,-168.831)">
			<title>Circle.18</title>
			<desc>22</desc>
			<v:userDefs>
				<v:ud v:nameU="visVersion" v:val="VT0(15):26"/>
			</v:userDefs>
			<v:textBlock v:margins="rect(4,4,4,4)" v:tabSpace="42.5197"/>
			<v:textRect cx="24.0723" cy="925.923" width="48.15" height="48.1447"/>
			<path d="M0 925.92 A24.0723 24.0723 0 0 1 48.14 925.92 A24.0723 24.0723 0 1 1 -0 925.92 Z" class="st2"/>
			<text x="8.87" y="934.92" class="st3" v:langID="1033"><v:paragraph v:horizAlign="1"/><v:tabList/>22</text>		</g>
		<g id="shape19-51" v:mID="19" v:groupContext="shape" transform="translate(267.664,-103.12)">
			<title>Circle.19</title>
			<desc>23</desc>
			<v:userDefs>
				<v:ud v:nameU="visVersion" v:val="VT0(15):26"/>
			</v:userDefs>
			<v:textBlock v:margins="rect(4,4,4,4)" v:tabSpace="42.5197"/>
			<v:textRect cx="24.0723" cy="925.923" width="48.15" height="48.1447"/>
			<path d="M0 925.92 A24.0723 24.0723 0 0 1 48.14 925.92 A24.0723 24.0723 0 1 1 -0 925.92 Z" class="st2"/>
			<text x="8.87" y="934.92" class="st3" v:langID="1033"><v:paragraph v:horizAlign="1"/><v:tabList/>23</text>		</g>
		<g id="shape20-54" v:mID="20" v:groupContext="shape" transform="translate(343.486,-103.12)">
			<title>Circle.20</title>
			<desc>24</desc>
			<v:userDefs>
				<v:ud v:nameU="visVersion" v:val="VT0(15):26"/>
			</v:userDefs>
			<v:textBlock v:margins="rect(4,4,4,4)" v:tabSpace="42.5197"/>
			<v:textRect cx="24.0723" cy="925.923" width="48.15" height="48.1447"/>
			<path d="M0 925.92 A24.0723 24.0723 0 0 1 48.14 925.92 A24.0723 24.0723 0 1 1 -0 925.92 Z" class="st2"/>
			<text x="8.87" y="934.92" class="st3" v:langID="1033"><v:paragraph v:horizAlign="1"/><v:tabList/>24</text>		</g>
		<g id="shape21-57" v:mID="21" v:groupContext="shape" transform="translate(267.325,-41.4758)">
			<title>Circle.21</title>
			<desc>25</desc>
			<v:userDefs>
				<v:ud v:nameU="visVersion" v:val="VT0(15):26"/>
			</v:userDefs>
			<v:textBlock v:margins="rect(4,4,4,4)" v:tabSpace="42.5197"/>
			<v:textRect cx="24.0723" cy="925.923" width="48.15" height="48.1447"/>
			<path d="M0 925.92 A24.0723 24.0723 0 0 1 48.14 925.92 A24.0723 24.0723 0 1 1 -0 925.92 Z" class="st2"/>
			<text x="8.87" y="934.92" class="st3" v:langID="1033"><v:paragraph v:horizAlign="1"/><v:tabList/>25</text>		</g>
		<g id="shape22-60" v:mID="22" v:groupContext="shape" transform="translate(343.147,-41.4758)">
			<title>Circle.22</title>
			<desc>26</desc>
			<v:userDefs>
				<v:ud v:nameU="visVersion" v:val="VT0(15):26"/>
			</v:userDefs>
			<v:textBlock v:margins="rect(4,4,4,4)" v:tabSpace="42.5197"/>
			<v:textRect cx="24.0723" cy="925.923" width="48.15" height="48.1447"/>
			<path d="M0 925.92 A24.0723 24.0723 0 0 1 48.14 925.92 A24.0723 24.0723 0 1 1 -0 925.92 Z" class="st2"/>
			<text x="8.87" y="934.92" class="st3" v:langID="1033"><v:paragraph v:horizAlign="1"/><v:tabList/>26</text>		</g>
		<g id="shape23-63" v:mID="23" v:groupContext="shape" transform="translate(275.901,-837.24)">
			<title>Box.17</title>
			<desc>J1</desc>
			<v:userDefs>
				<v:ud v:nameU="visVersion" v:val="VT0(15):26"/>
			</v:userDefs>
			<v:textBlock v:margins="rect(4,4,4,4)" v:tabSpace="42.5197"/>
			<v:textRect cx="56.6929" cy="907.475" width="113.39" height="85.0394"/>
			<rect x="0" y="864.956" width="113.386" height="85.0394" class="st4"/>
			<text x="36.58" y="921.88" class="st5" v:langID="1033"><v:paragraph v:horizAlign="1"/><v:tabList/>J1</text>		</g>
		<g id="shape25-66" v:mID="25" v:groupContext="shape" transform="translate(343.994,-225.24)">
			<title>Circle.25</title>
			<desc>20</desc>
			<v:userDefs>
				<v:ud v:nameU="visVersion" v:val="VT0(15):26"/>
			</v:userDefs>
			<v:textBlock v:margins="rect(4,4,4,4)" v:tabSpace="42.5197"/>
			<v:textRect cx="24.0723" cy="925.923" width="48.15" height="48.1447"/>
			<path d="M0 925.92 A24.0723 24.0723 0 0 1 48.14 925.92 A24.0723 24.0723 0 1 1 -0 925.92 Z" class="st2"/>
			<text x="8.87" y="934.92" class="st3" v:langID="1033"><v:paragraph v:horizAlign="1"/><v:tabList/>20</text>		</g>
		<g id="shape26-69" v:mID="26" v:groupContext="shape" transform="translate(268.172,-225.24)">
			<title>Circle.23</title>
			<desc>19</desc>
			<v:userDefs>
				<v:ud v:nameU="visVersion" v:val="VT0(15):26"/>
			</v:userDefs>
			<v:textBlock v:margins="rect(4,4,4,4)" v:tabSpace="42.5197"/>
			<v:textRect cx="24.0723" cy="925.923" width="48.15" height="48.1447"/>
			<path d="M0 925.92 A24.0723 24.0723 0 0 1 48.14 925.92 A24.0723 24.0723 0 1 1 -0 925.92 Z" class="st2"/>
			<text x="8.87" y="934.92" class="st3" v:langID="1033"><v:paragraph v:horizAlign="1"/><v:tabList/>19</text>		</g>
		<g id="shape27-72" v:mID="27" v:groupContext="shape" transform="translate(266.901,-345.168)">
			<title>Circle.27</title>
			<desc>15</desc>
			<v:userDefs>
				<v:ud v:nameU="visVersion" v:val="VT0(15):26"/>
			</v:userDefs>
			<v:textBlock v:margins="rect(4,4,4,4)" v:tabSpace="42.5197"/>
			<v:textRect cx="24.0723" cy="925.923" width="48.15" height="48.1447"/>
			<path d="M0 925.92 A24.0723 24.0723 0 0 1 48.14 925.92 A24.0723 24.0723 0 1 1 -0 925.92 Z" class="st2"/>
			<text x="8.87" y="934.92" class="st3" v:langID="1033"><v:paragraph v:horizAlign="1"/><v:tabList/>15</text>		</g>
		<g id="shape28-75" v:mID="28" v:groupContext="shape" transform="translate(267.24,-406.812)">
			<title>Circle.28</title>
			<desc>13</desc>
			<v:userDefs>
				<v:ud v:nameU="visVersion" v:val="VT0(15):26"/>
			</v:userDefs>
			<v:textBlock v:margins="rect(4,4,4,4)" v:tabSpace="42.5197"/>
			<v:textRect cx="24.0723" cy="925.923" width="48.15" height="48.1447"/>
			<path d="M0 925.92 A24.0723 24.0723 0 0 1 48.14 925.92 A24.0723 24.0723 0 1 1 -0 925.92 Z" class="st2"/>
			<text x="8.87" y="934.92" class="st3" v:langID="1033"><v:paragraph v:horizAlign="1"/><v:tabList/>13</text>		</g>
		<g id="shape29-78" v:mID="29" v:groupContext="shape" transform="translate(342.893,-472.74)">
			<title>Circle.29</title>
			<desc>12</desc>
			<v:userDefs>
				<v:ud v:nameU="visVersion" v:val="VT0(15):26"/>
			</v:userDefs>
			<v:textBlock v:margins="rect(4,4,4,4)" v:tabSpace="42.5197"/>
			<v:textRect cx="24.0723" cy="925.923" width="48.15" height="48.1447"/>
			<path d="M0 925.92 A24.0723 24.0723 0 0 1 48.14 925.92 A24.0723 24.0723 0 1 1 -0 925.92 Z" class="st2"/>
			<text x="8.87" y="934.92" class="st3" v:langID="1033"><v:paragraph v:horizAlign="1"/><v:tabList/>12</text>		</g>
		<g id="shape30-81" v:mID="30" v:groupContext="shape" transform="translate(267.071,-472.74)">
			<title>Circle.30</title>
			<desc>11</desc>
			<v:userDefs>
				<v:ud v:nameU="visVersion" v:val="VT0(15):26"/>
			</v:userDefs>
			<v:textBlock v:margins="rect(4,4,4,4)" v:tabSpace="42.5197"/>
			<v:textRect cx="24.0723" cy="925.923" width="48.15" height="48.1447"/>
			<path d="M0 925.92 A24.0723 24.0723 0 0 1 48.14 925.92 A24.0723 24.0723 0 1 1 -0 925.92 Z" class="st2"/>
			<text x="8.87" y="934.92" class="st3" v:langID="1033"><v:paragraph v:horizAlign="1"/><v:tabList/>11</text>		</g>
		<g id="shape31-84" v:mID="31" v:groupContext="shape" transform="translate(239.516,-801.12)">
			<title>Circle.31</title>
			<v:userDefs>
				<v:ud v:nameU="visVersion" v:val="VT0(15):26"/>
			</v:userDefs>
			<path d="M0 941 A9 9 0 0 1 18 941 A9 9 0 1 1 0 941 Z" class="st6"/>
		</g>
		<g id="shape32-86" v:mID="32" v:groupContext="shape" transform="translate(239.516,-738.12)">
			<title>Circle.32</title>
			<v:userDefs>
				<v:ud v:nameU="visVersion" v:val="VT0(15):26"/>
			</v:userDefs>
			<path d="M0 941 A9 9 0 0 1 18 941 A9 9 0 1 1 0 941 Z" class="st6"/>
		</g>
		<g id="shape33-88" v:mID="33" v:groupContext="shape" transform="translate(239.516,-612.12)">
			<title>Circle.33</title>
			<v:userDefs>
				<v:ud v:nameU="visVersion" v:val="VT0(15):26"/>
			</v:userDefs>
			<path d="M0 941 A9 9 0 0 1 18 941 A9 9 0 1 1 0 941 Z" class="st6"/>
		</g>
		<g id="shape34-90" v:mID="34" v:groupContext="shape" transform="translate(239.516,-670.62)">
			<title>Circle.34</title>
			<v:userDefs>
				<v:ud v:nameU="visVersion" v:val="VT0(15):26"/>
			</v:userDefs>
			<path d="M0 941 A9 9 0 0 1 18 941 A9 9 0 1 1 0 941 Z" class="st6"/>
		</g>
		<g id="shape35-92" v:mID="35" v:groupContext="shape" transform="translate(405.172,-800.558)">
			<title>Circle.35</title>
			<v:userDefs>
				<v:ud v:nameU="visVersion" v:val="VT0(15):26"/>
			</v:userDefs>
			<path d="M0 941 A9 9 0 0 1 18 941 A9 9 0 1 1 0 941 Z" class="st6"/>
		</g>
		<g id="shape38-94" v:mID="38" v:groupContext="shape" transform="translate(239.516,-549.12)">
			<title>Circle.66</title>
			<v:userDefs>
				<v:ud v:nameU="visVersion" v:val="VT0(15):26"/>
			</v:userDefs>
			<path d="M0 941 A9 9 0 0 1 18 941 A9 9 0 1 1 0 941 Z" class="st6"/>
		</g>
		<g id="shape41-96" v:mID="41" v:groupContext="shape" v:layerMember="0" transform="translate(160.766,-549.12)">
			<title>Dynamic connector.41</title>
			<path d="M0 941 L78.75 940.99" class="st7"/>
		</g>
		<g id="shape42-99" v:mID="42" v:groupContext="shape" v:layerMember="0" transform="translate(160.766,-612.12)">
			<title>Dynamic connector.66</title>
			<path d="M0 941 L78.75 940.99" class="st7"/>
		</g>
		<g id="shape43-102" v:mID="43" v:groupContext="shape" v:layerMember="0" transform="translate(160.766,-670.62)">
			<title>Dynamic connector.67</title>
			<path d="M0 941 L78.75 940.99" class="st7"/>
		</g>
		<g id="shape44-105" v:mID="44" v:groupContext="shape" v:layerMember="0" transform="translate(160.766,-738.12)">
			<title>Dynamic connector.68</title>
			<path d="M0 941 L78.75 940.99" class="st7"/>
		</g>
		<g id="shape45-108" v:mID="45" v:groupContext="shape" v:layerMember="0" transform="translate(99.5053,-801.12)">
			<title>Dynamic connector.69</title>
			<path d="M0 941 L140.01 941" class="st7"/>
		</g>
		<g id="shape46-111" v:mID="46" v:groupContext="shape" v:layerMember="0" transform="translate(108.44,-810.12)">
			<title>Dynamic connector.95</title>
			<path d="M-8.93 950 L-9.07 905.83" class="st7"/>
		</g>
		<g id="shape47-114" v:mID="47" v:groupContext="shape" transform="translate(117.375,1014.5) rotate(180)">
			<title>Triangle</title>
			<v:userDefs>
				<v:ud v:nameU="visVersion" v:val="VT0(15):26"/>
			</v:userDefs>
			<path d="M36 950 L18 918.8 L0 950 L36 950 Z" class="st8"/>
		</g>
		<g id="shape48-116" v:mID="48" v:groupContext="shape" v:layerMember="0" transform="translate(423.172,-800.839)">
			<title>Dynamic connector.100</title>
			<path d="M0 941.28 L106.59 940.71" class="st7"/>
		</g>
		<g id="shape49-119" v:mID="49" v:groupContext="shape" v:layerMember="0" transform="translate(538.867,-853.995)">
			<title>Dynamic connector.103</title>
			<path d="M-8.9 950 L-9.1 993.87" class="st7"/>
		</g>
		<g id="shape50-122" v:mID="50" v:groupContext="shape" transform="translate(18.375,-882.12)">
			<title>Sheet.50</title>
			<desc>V_FL</desc>
			<v:textBlock v:margins="rect(4,4,4,4)"/>
			<v:textRect cx="76.5" cy="927.495" width="153" height="45"/>
			<rect x="0" y="904.995" width="153" height="45" class="st9"/>
			<text x="47.32" y="936.5" class="st10" v:langID="1033"><v:paragraph v:horizAlign="1"/><v:tabList/>V_FL</text>		</g>
		<g id="shape51-125" v:mID="51" v:groupContext="shape" transform="translate(147.266,-747.12)">
			<title>Sheet.51</title>
			<desc>MOSI</desc>
			<v:textBlock v:margins="rect(4,4,4,4)"/>
			<v:textRect cx="49.5" cy="927.495" width="99" height="45"/>
			<rect x="0" y="904.995" width="99" height="45" class="st9"/>
			<text x="16.07" y="936.5" class="st10" v:langID="1033"><v:paragraph v:horizAlign="1"/><v:tabList/>MOSI</text>		</g>
		<g id="shape52-128" v:mID="52" v:groupContext="shape" transform="translate(147.266,-684.12)">
			<title>Sheet.52</title>
			<desc>SCK</desc>
			<v:textBlock v:margins="rect(4,4,4,4)"/>
			<v:textRect cx="49.5" cy="927.495" width="99" height="45"/>
			<rect x="0" y="904.995" width="99" height="45" class="st9"/>
			<text x="26.82" y="936.5" class="st10" v:langID="1033"><v:paragraph v:horizAlign="1"/><v:tabList/>SCK</text>		</g>
		<g id="shape53-131" v:mID="53" v:groupContext="shape" transform="translate(151.766,-621.12)">
			<title>Sheet.53</title>
			<desc>FCS</desc>
			<v:textBlock v:margins="rect(4,4,4,4)"/>
			<v:textRect cx="49.5" cy="927.495" width="99" height="45"/>
			<rect x="0" y="904.995" width="99" height="45" class="st9"/>
			<text x="27.72" y="936.5" class="st10" v:langID="1033"><v:paragraph v:horizAlign="1"/><v:tabList/>FCS</text>		</g>
		<g id="shape54-134" v:mID="54" v:groupContext="shape" transform="translate(151.766,-558.12)">
			<title>Sheet.54</title>
			<desc>MISO</desc>
			<v:textBlock v:margins="rect(4,4,4,4)"/>
			<v:textRect cx="49.5" cy="927.495" width="99" height="45"/>
			<rect x="0" y="904.995" width="99" height="45" class="st9"/>
			<text x="16.07" y="936.5" class="st10" v:langID="1033"><v:paragraph v:horizAlign="1"/><v:tabList/>MISO</text>		</g>
		<g id="shape57-137" v:mID="57" v:groupContext="shape" transform="translate(547.969,1014.8) rotate(180)">
			<title>Triangle.127</title>
			<v:userDefs>
				<v:ud v:nameU="visVersion" v:val="VT0(15):26"/>
			</v:userDefs>
			<path d="M36 950 L18 918.8 L0 950 L36 950 Z" class="st8"/>
		</g>
		<g id="shape58-139" v:mID="58" v:groupContext="shape" transform="translate(454.875,-886.62)">
			<title>Sheet.58</title>
			<desc>V3</desc>
			<v:textBlock v:margins="rect(4,4,4,4)"/>
			<v:textRect cx="76.5" cy="927.495" width="153" height="45"/>
			<rect x="0" y="904.995" width="153" height="45" class="st9"/>
			<text x="60.39" y="936.5" class="st10" v:langID="1033"><v:paragraph v:horizAlign="1"/><v:tabList/>V3</text>		</g>
		<g id="shape59-142" v:mID="59" v:groupContext="shape" transform="translate(259.609,-783)">
			<title>Rectangle.33</title>
			<v:userDefs>
				<v:ud v:nameU="visVersion" v:val="VT0(15):26"/>
			</v:userDefs>
			<rect x="0" y="895.875" width="144.375" height="54.12" class="st11"/>
		</g>
		<g id="shape60-144" v:mID="60" v:groupContext="shape" transform="translate(258.667,-657)">
			<title>Rectangle.357</title>
			<v:userDefs>
				<v:ud v:nameU="visVersion" v:val="VT0(15):26"/>
			</v:userDefs>
			<rect x="0" y="895.875" width="144.943" height="54.12" class="st11"/>
		</g>
		<g id="shape61-146" v:mID="61" v:groupContext="shape" transform="translate(258.484,-531.12)">
			<title>Rectangle.358</title>
			<v:userDefs>
				<v:ud v:nameU="visVersion" v:val="VT0(15):26"/>
			</v:userDefs>
			<rect x="0" y="896.115" width="145.688" height="53.88" class="st11"/>
		</g>
		<g id="shape62-148" v:mID="62" v:groupContext="shape" transform="translate(421.609,1206.99) rotate(180)">
			<title>Circle.359</title>
			<v:userDefs>
				<v:ud v:nameU="visVersion" v:val="VT0(15):26"/>
			</v:userDefs>
			<path d="M0 941 A9 9 0 0 1 18 941 A9 9 0 1 1 0 941 Z" class="st6"/>
		</g>
		<g id="shape63-150" v:mID="63" v:groupContext="shape" v:layerMember="0" transform="translate(500.359,-693)">
			<title>Dynamic connector.360</title>
			<path d="M0 958.99 L-78.75 959" class="st7"/>
		</g>
		<g id="shape64-153" v:mID="64" v:groupContext="shape" transform="translate(421.609,1328.32) rotate(180)">
			<title>Circle.361</title>
			<v:userDefs>
				<v:ud v:nameU="visVersion" v:val="VT0(15):26"/>
			</v:userDefs>
			<path d="M0 941 A9 9 0 0 1 18 941 A9 9 0 1 1 0 941 Z" class="st6"/>
		</g>
		<g id="shape65-155" v:mID="65" v:groupContext="shape" v:layerMember="0" transform="translate(500.359,-571.667)">
			<title>Dynamic connector.362</title>
			<path d="M0 958.99 L-78.75 959" class="st7"/>
		</g>
		<g id="shape66-158" v:mID="66" v:groupContext="shape" transform="translate(406.984,-684)">
			<title>Sheet.66</title>
			<desc>P0_4</desc>
			<v:textBlock v:margins="rect(4,4,4,4)"/>
			<v:textRect cx="49.5" cy="927.495" width="99" height="45"/>
			<rect x="0" y="904.995" width="99" height="45" class="st9"/>
			<text x="19.08" y="936.5" class="st10" v:langID="1033"><v:paragraph v:horizAlign="1"/><v:tabList/>P0_4</text>		</g>
		<g id="shape67-161" v:mID="67" v:groupContext="shape" transform="translate(402.484,-562.5)">
			<title>Sheet.67</title>
			<desc>P0_3</desc>
			<v:textBlock v:margins="rect(4,4,4,4)"/>
			<v:textRect cx="49.5" cy="927.495" width="99" height="45"/>
			<rect x="0" y="904.995" width="99" height="45" class="st9"/>
			<text x="19.08" y="936.5" class="st10" v:langID="1033"><v:paragraph v:horizAlign="1"/><v:tabList/>P0_3</text>		</g>
		<g id="shape68-164" v:mID="68" v:groupContext="shape" transform="translate(259.047,-720.12)">
			<title>Rectangle.68</title>
			<v:userDefs>
				<v:ud v:nameU="visVersion" v:val="VT0(15):26"/>
			</v:userDefs>
			<rect x="0" y="898.245" width="144.375" height="51.75" class="st11"/>
		</g>
		<g id="shape69-166" v:mID="69" v:groupContext="shape" transform="translate(258.297,-594.12)">
			<title>Rectangle.69</title>
			<v:userDefs>
				<v:ud v:nameU="visVersion" v:val="VT0(15):26"/>
			</v:userDefs>
			<rect x="0" y="895.995" width="144.375" height="54" class="st11"/>
		</g>
		<g id="shape70-168" v:mID="70" v:groupContext="shape" transform="translate(421.609,1143.87) rotate(180)">
			<title>Circle.70</title>
			<v:userDefs>
				<v:ud v:nameU="visVersion" v:val="VT0(15):26"/>
			</v:userDefs>
			<path d="M0 941 A9 9 0 0 1 18 941 A9 9 0 1 1 0 941 Z" class="st6"/>
		</g>
		<g id="shape71-170" v:mID="71" v:groupContext="shape" v:layerMember="0" transform="translate(500.359,-756.12)">
			<title>Dynamic connector.71</title>
			<path d="M0 958.99 L-78.75 959" class="st7"/>
		</g>
		<g id="shape72-173" v:mID="72" v:groupContext="shape" transform="translate(406.984,-747.12)">
			<title>Sheet.72</title>
			<desc>P0_0</desc>
			<v:textBlock v:margins="rect(4,4,4,4)"/>
			<v:textRect cx="49.5" cy="927.495" width="99" height="45"/>
			<rect x="0" y="904.995" width="99" height="45" class="st9"/>
			<text x="19.08" y="936.5" class="st10" v:langID="1033"><v:paragraph v:horizAlign="1"/><v:tabList/>P0_0</text>		</g>
		<g id="shape73-176" v:mID="73" v:groupContext="shape" transform="translate(421.609,1269.87) rotate(180)">
			<title>Circle.73</title>
			<v:userDefs>
				<v:ud v:nameU="visVersion" v:val="VT0(15):26"/>
			</v:userDefs>
			<path d="M0 941 A9 9 0 0 1 18 941 A9 9 0 1 1 0 941 Z" class="st6"/>
		</g>
		<g id="shape74-178" v:mID="74" v:groupContext="shape" v:layerMember="0" transform="translate(500.359,-630.12)">
			<title>Dynamic connector.74</title>
			<path d="M0 958.99 L-78.75 959" class="st7"/>
		</g>
		<g id="shape75-181" v:mID="75" v:groupContext="shape" transform="translate(406.984,-621.12)">
			<title>Sheet.75</title>
			<desc>P0_1</desc>
			<v:textBlock v:margins="rect(4,4,4,4)"/>
			<v:textRect cx="49.5" cy="927.495" width="99" height="45"/>
			<rect x="0" y="904.995" width="99" height="45" class="st9"/>
			<text x="19.08" y="936.5" class="st10" v:langID="1033"><v:paragraph v:horizAlign="1"/><v:tabList/>P0_1</text>		</g>
		<g id="shape76-184" v:mID="76" v:groupContext="shape" transform="translate(259.047,-36.3467)">
			<title>Rectangle.76</title>
			<v:userDefs>
				<v:ud v:nameU="visVersion" v:val="VT0(15):26"/>
			</v:userDefs>
			<rect x="0" y="896.115" width="145.688" height="53.88" class="st11"/>
		</g>
		<g id="shape77-186" v:mID="77" v:groupContext="shape" transform="translate(239.359,-54.2867)">
			<title>Circle.77</title>
			<v:userDefs>
				<v:ud v:nameU="visVersion" v:val="VT0(15):26"/>
			</v:userDefs>
			<path d="M0 941 A9 9 0 0 1 18 941 A9 9 0 1 1 0 941 Z" class="st6"/>
		</g>
		<g id="shape78-188" v:mID="78" v:groupContext="shape" v:layerMember="0" transform="translate(160.609,-54.2867)">
			<title>Dynamic connector.78</title>
			<path d="M0 941 L78.75 940.99" class="st7"/>
		</g>
		<g id="shape79-191" v:mID="79" v:groupContext="shape" transform="translate(151.609,-63.2867)">
			<title>Sheet.79</title>
			<desc>RESET</desc>
			<v:textBlock v:margins="rect(4,4,4,4)"/>
			<v:textRect cx="49.5" cy="927.495" width="99" height="45"/>
			<rect x="0" y="904.995" width="99" height="45" class="st9"/>
			<text x="12.51" y="936.5" class="st10" v:langID="1033"><v:paragraph v:horizAlign="1"/><v:tabList/>RESET</text>		</g>
		<g id="shape80-194" v:mID="80" v:groupContext="shape" transform="translate(239.359,-117.287)">
			<title>Circle.80</title>
			<v:userDefs>
				<v:ud v:nameU="visVersion" v:val="VT0(15):26"/>
			</v:userDefs>
			<path d="M0 941 A9 9 0 0 1 18 941 A9 9 0 1 1 0 941 Z" class="st6"/>
		</g>
		<g id="shape81-196" v:mID="81" v:groupContext="shape" v:layerMember="0" transform="translate(160.609,-117.287)">
			<title>Dynamic connector.81</title>
			<path d="M0 941 L78.75 940.99" class="st7"/>
		</g>
		<g id="shape82-199" v:mID="82" v:groupContext="shape" transform="translate(151.609,-126.287)">
			<title>Sheet.82</title>
			<desc>SWDIO</desc>
			<v:textBlock v:margins="rect(4,4,4,4)"/>
			<v:textRect cx="49.5" cy="927.495" width="99" height="45"/>
			<rect x="0" y="904.995" width="99" height="45" class="st9"/>
			<text x="6.32" y="936.5" class="st10" v:langID="1033"><v:paragraph v:horizAlign="1"/><v:tabList/>SWDIO</text>		</g>
		<g id="shape83-202" v:mID="83" v:groupContext="shape" transform="translate(239.359,-180.287)">
			<title>Circle.83</title>
			<v:userDefs>
				<v:ud v:nameU="visVersion" v:val="VT0(15):26"/>
			</v:userDefs>
			<path d="M0 941 A9 9 0 0 1 18 941 A9 9 0 1 1 0 941 Z" class="st6"/>
		</g>
		<g id="shape84-204" v:mID="84" v:groupContext="shape" v:layerMember="0" transform="translate(160.609,-180.287)">
			<title>Dynamic connector.84</title>
			<path d="M0 941 L78.75 940.99" class="st7"/>
		</g>
		<g id="shape85-207" v:mID="85" v:groupContext="shape" transform="translate(151.609,-189.287)">
			<title>Sheet.85</title>
			<desc>SWCLK</desc>
			<v:textBlock v:margins="rect(4,4,4,4)"/>
			<v:textRect cx="49.5" cy="927.495" width="99" height="45"/>
			<rect x="0" y="904.995" width="99" height="45" class="st9"/>
			<text x="7.17" y="936.5" class="st10" v:langID="1033"><v:paragraph v:horizAlign="1"/><v:tabList/>SWCLK</text>		</g>
		<g id="shape86-210" v:mID="86" v:groupContext="shape" transform="translate(423.859,1836.7) rotate(180)">
			<title>Circle.86</title>
			<v:userDefs>
				<v:ud v:nameU="visVersion" v:val="VT0(15):26"/>
			</v:userDefs>
			<path d="M0 941 A9 9 0 0 1 18 941 A9 9 0 1 1 0 941 Z" class="st6"/>
		</g>
		<g id="shape87-212" v:mID="87" v:groupContext="shape" v:layerMember="0" transform="translate(502.609,-63.2867)">
			<title>Dynamic connector.87</title>
			<path d="M0 958.99 L-78.75 959" class="st7"/>
		</g>
		<g id="shape88-215" v:mID="88" v:groupContext="shape" transform="translate(404.734,-54.12)">
			<title>Sheet.88</title>
			<desc>P0_0</desc>
			<v:textBlock v:margins="rect(4,4,4,4)"/>
			<v:textRect cx="49.5" cy="927.495" width="99" height="45"/>
			<rect x="0" y="904.995" width="99" height="45" class="st9"/>
			<text x="19.08" y="936.5" class="st10" v:langID="1033"><v:paragraph v:horizAlign="1"/><v:tabList/>P0_0</text>		</g>
		<g id="shape89-218" v:mID="89" v:groupContext="shape" transform="translate(421.609,1764.7) rotate(180)">
			<title>Circle.89</title>
			<v:userDefs>
				<v:ud v:nameU="visVersion" v:val="VT0(15):26"/>
			</v:userDefs>
			<path d="M0 941 A9 9 0 0 1 18 941 A9 9 0 1 1 0 941 Z" class="st6"/>
		</g>
		<g id="shape90-220" v:mID="90" v:groupContext="shape" v:layerMember="0" transform="translate(500.359,-135.287)">
			<title>Dynamic connector.90</title>
			<path d="M0 958.99 L-78.75 959" class="st7"/>
		</g>
		<g id="shape91-223" v:mID="91" v:groupContext="shape" transform="translate(402.484,-126.12)">
			<title>Sheet.91</title>
			<desc>P0_10</desc>
			<v:textBlock v:margins="rect(4,4,4,4)"/>
			<v:textRect cx="49.5" cy="927.495" width="99" height="45"/>
			<rect x="0" y="904.995" width="99" height="45" class="st9"/>
			<text x="11.47" y="936.5" class="st10" v:langID="1033"><v:paragraph v:horizAlign="1"/><v:tabList/>P0_10</text>		</g>
		<g id="shape92-226" v:mID="92" v:groupContext="shape" transform="translate(421.609,1697.2) rotate(180)">
			<title>Circle.92</title>
			<v:userDefs>
				<v:ud v:nameU="visVersion" v:val="VT0(15):26"/>
			</v:userDefs>
			<path d="M0 941 A9 9 0 0 1 18 941 A9 9 0 1 1 0 941 Z" class="st6"/>
		</g>
		<g id="shape93-228" v:mID="93" v:groupContext="shape" v:layerMember="0" transform="translate(500.359,-202.787)">
			<title>Dynamic connector.93</title>
			<path d="M0 958.99 L-78.75 959" class="st7"/>
		</g>
		<g id="shape94-231" v:mID="94" v:groupContext="shape" transform="translate(402.484,-193.62)">
			<title>Sheet.94</title>
			<desc>P0_2</desc>
			<v:textBlock v:margins="rect(4,4,4,4)"/>
			<v:textRect cx="49.5" cy="927.495" width="99" height="45"/>
			<rect x="0" y="904.995" width="99" height="45" class="st9"/>
			<text x="19.08" y="936.5" class="st10" v:langID="1033"><v:paragraph v:horizAlign="1"/><v:tabList/>P0_2</text>		</g>
		<g id="shape97-234" v:mID="97" v:groupContext="shape" transform="translate(181.844,-270)">
			<title>Box.97</title>
			<v:userDefs>
				<v:ud v:nameU="visVersion" v:val="VT0(15):26"/>
			</v:userDefs>
			<rect x="0" y="819.495" width="75.6562" height="130.5" class="st1"/>
		</g>
		<g id="shape100-236" v:mID="100" v:groupContext="shape" transform="translate(192.467,-280.464)">
			<title>Circle.100</title>
			<desc>2</desc>
			<v:userDefs>
				<v:ud v:nameU="visVersion" v:val="VT0(15):26"/>
			</v:userDefs>
			<v:textBlock v:margins="rect(4,4,4,4)" v:tabSpace="42.5197"/>
			<v:textRect cx="24.0723" cy="925.923" width="48.15" height="48.1447"/>
			<path d="M0 925.92 A24.0723 24.0723 0 0 1 48.14 925.92 A24.0723 24.0723 0 1 1 -0 925.92 Z" class="st2"/>
			<text x="16.47" y="934.92" class="st3" v:langID="1033"><v:paragraph v:horizAlign="1"/><v:tabList/>2</text>		</g>
		<g id="shape101-239" v:mID="101" v:groupContext="shape" transform="translate(190.857,-345.605)">
			<title>Circle.101</title>
			<desc>1</desc>
			<v:userDefs>
				<v:ud v:nameU="visVersion" v:val="VT0(15):26"/>
			</v:userDefs>
			<v:textBlock v:margins="rect(4,4,4,4)" v:tabSpace="42.5197"/>
			<v:textRect cx="24.0723" cy="925.923" width="48.15" height="48.1447"/>
			<path d="M0 925.92 A24.0723 24.0723 0 0 1 48.14 925.92 A24.0723 24.0723 0 1 1 -0 925.92 Z" class="st2"/>
			<text x="16.47" y="934.92" class="st3" v:langID="1033"><v:paragraph v:horizAlign="1"/><v:tabList/>1</text>		</g>
		<g id="shape103-242" v:mID="103" v:groupContext="shape" transform="translate(154.984,-389.48)">
			<title>Box.103</title>
			<desc>J10</desc>
			<v:userDefs>
				<v:ud v:nameU="visVersion" v:val="VT0(15):26"/>
			</v:userDefs>
			<v:textBlock v:margins="rect(4,4,4,4)" v:tabSpace="42.5197"/>
			<v:textRect cx="56.6929" cy="907.475" width="113.39" height="85.0394"/>
			<rect x="0" y="864.956" width="113.386" height="85.0394" class="st4"/>
			<text x="24.42" y="921.88" class="st5" v:langID="1033"><v:paragraph v:horizAlign="1"/><v:tabList/>J10</text>		</g>
		<g id="shape104-245" v:mID="104" v:groupContext="shape" transform="translate(257.922,-221.123)">
			<title>Rectangle.104</title>
			<v:userDefs>
				<v:ud v:nameU="visVersion" v:val="VT0(15):26"/>
			</v:userDefs>
			<rect x="0" y="896.115" width="145.688" height="53.88" class="st12"/>
		</g>
		<g id="shape105-247" v:mID="105" v:groupContext="shape" transform="translate(185.64,-281.31)">
			<title>Rectangle.105</title>
			<v:userDefs>
				<v:ud v:nameU="visVersion" v:val="VT0(15):26"/>
			</v:userDefs>
			<rect x="0" y="896.115" width="145.688" height="53.88" class="st12"/>
		</g>
		<g id="shape106-249" v:mID="106" v:groupContext="shape" transform="translate(184.797,-342.12)">
			<title>Rectangle.106</title>
			<v:userDefs>
				<v:ud v:nameU="visVersion" v:val="VT0(15):26"/>
			</v:userDefs>
			<rect x="0" y="896.115" width="145.688" height="53.88" class="st12"/>
		</g>
		<g id="shape107-251" v:mID="107" v:groupContext="shape" transform="translate(258.484,-99.6225)">
			<title>Rectangle.107</title>
			<v:userDefs>
				<v:ud v:nameU="visVersion" v:val="VT0(15):26"/>
			</v:userDefs>
			<rect x="0" y="896.115" width="145.688" height="53.88" class="st11"/>
		</g>
		<g id="shape108-253" v:mID="108" v:groupContext="shape" transform="translate(258.484,-162)">
			<title>Rectangle.108</title>
			<v:userDefs>
				<v:ud v:nameU="visVersion" v:val="VT0(15):26"/>
			</v:userDefs>
			<rect x="0" y="896.115" width="145.688" height="53.88" class="st11"/>
		</g>
	</g>
</svg>
